<?xml version="1.0" encoding="UTF-8"?>
<svg version="1.1" xmlns="http://www.w3.org/2000/svg" width="2000" height="1500">
<path d="M0 0 C660 0 1320 0 2000 0 C2000 495 2000 990 2000 1500 C1340 1500 680 1500 0 1500 C0 1005 0 510 0 0 Z " fill="#FEFEFE" transform="translate(0,0)"/>
<path d="M0 0 C3.74707658 0.00667554 7.49414173 0.00160753 11.24122012 -0.0018822 C18.55213939 -0.00688397 25.86301288 -0.00133417 33.17392645 0.00796811 C41.70777163 0.0184303 50.24160732 0.01827987 58.7754577 0.01779553 C74.00986367 0.01729663 89.24424852 0.02641078 104.47864687 0.04097974 C119.22669766 0.05507607 133.97472989 0.06214982 148.7227875 0.06148756 C149.63203362 0.0614476 150.54127973 0.06140764 151.47807876 0.06136648 C152.83970572 0.06130594 152.83970572 0.06130594 154.22884029 0.06124419 C171.07593012 0.06055274 187.92301215 0.06645192 204.77009944 0.07539741 C210.70493444 0.07840104 216.639768 0.07947543 222.57460368 0.07992971 C229.81274144 0.08061489 237.05086604 0.08512194 244.28899822 0.09426252 C247.97496007 0.09884906 251.66090518 0.10193773 255.34687006 0.10066831 C310.01277764 0.08622471 361.9045008 12.86732124 403.77478945 50.24679029 C404.26237734 50.68088209 404.74996523 51.11497388 405.25232852 51.56221998 C408.80836859 54.7401945 412.30404608 57.97590714 415.77478945 61.24679029 C416.50697695 61.93643873 417.23916445 62.62608716 417.99353945 63.33663404 C439.67784668 84.37557499 455.30192993 112.13046472 465.77478945 140.24679029 C466.13185977 141.19296216 466.48893008 142.13913404 466.8568207 143.11397779 C476.35740939 169.83674916 478.24528685 197.42267689 478.16696346 225.55070293 C478.16005086 229.23995193 478.17071328 232.92916212 478.17890322 236.61840284 C478.19211531 243.81015309 478.1894195 251.00180846 478.1806653 258.19356215 C478.17383914 264.04805379 478.1729931 269.90251918 478.17623675 275.75701368 C478.17669645 276.59609311 478.17715615 277.43517254 478.17762978 278.29967862 C478.17858913 280.00522626 478.17956177 281.71077389 478.18054755 283.41632152 C478.18906475 299.34063241 478.17932534 315.26489115 478.16314645 331.18919349 C478.14974663 344.79858776 478.15207577 358.40790521 478.16590273 372.0172981 C478.18202387 387.89176828 478.18824112 403.76619296 478.17906594 419.64067018 C478.17811048 421.33930241 478.17716736 423.03793465 478.17623675 424.7365669 C478.17577392 425.57192785 478.1753111 426.40728879 478.17483424 427.26796371 C478.17226386 433.10294803 478.17657274 438.93790304 478.18367541 444.77288282 C478.19216372 451.90163521 478.18965865 459.03028875 478.17383318 466.15903008 C478.16604756 469.7834022 478.16268846 473.40761065 478.17278063 477.03198087 C478.32267667 535.78893289 462.19235048 591.10978675 421.22010195 634.59054029 C418.76732913 637.19062803 418.76732913 637.19062803 416.6693207 639.89522779 C413.76834409 643.49602763 410.29002374 646.26194448 406.77478945 649.24679029 C405.85826602 650.06276685 404.94174258 650.87874341 403.9974457 651.71944654 C362.10651089 688.71870175 309.56851006 702.60712403 254.88652802 702.50823963 C251.13520914 702.50366462 247.383908 702.51072369 243.6325928 702.51619947 C236.30555136 702.52504266 228.97855115 702.52319402 221.65150817 702.51737419 C215.68907692 702.51283654 209.72665713 702.51225383 203.76422465 702.51442182 C202.91194045 702.51472829 202.05965625 702.51503475 201.18154526 702.51535051 C199.44949596 702.51599003 197.71744667 702.51663846 195.98539738 702.51729569 C179.78369831 702.52298439 163.58202195 702.51646462 147.38032661 702.50569496 C133.51888292 702.49676562 119.65747276 702.49830924 105.79602969 702.50753248 C89.65247411 702.51826936 73.5089384 702.52243014 57.36537975 702.51630795 C55.63918702 702.51567094 53.91299429 702.51504219 52.18680155 702.51442182 C50.91323383 702.51395899 50.91323383 702.51395899 49.61393746 702.51348682 C43.66945914 702.51176974 37.72499357 702.51465362 31.78051722 702.51938093 C24.52048126 702.52502812 17.26048847 702.52339372 10.00045737 702.51281944 C6.30577626 702.50761309 2.61116674 702.50541828 -1.08351362 702.51211774 C-20.50920008 702.54439975 -39.82332295 702.39625628 -58.85021055 697.99679029 C-59.80548643 697.78135572 -60.76076231 697.56592115 -61.74498594 697.34395826 C-96.87054697 689.15316571 -129.60182265 671.63239977 -156.08458555 647.19991529 C-157.81862313 645.61776421 -159.57220437 644.13732148 -161.41271055 642.68429029 C-164.38283684 640.11018084 -166.85518816 637.37491036 -169.3931793 634.38350904 C-170.57436968 633.00587335 -171.78386681 631.65177896 -173.0259918 630.32882154 C-206.86363853 594.10922866 -225.40255582 541.61529678 -225.36565244 492.51287305 C-225.36862356 491.26352826 -225.37159469 490.01418346 -225.37465584 488.72697973 C-225.38266096 485.28421904 -225.38451177 481.84147927 -225.38525331 478.39871037 C-225.38711539 474.67514199 -225.39466865 470.95158417 -225.40138853 467.22802198 C-225.41492846 459.09503214 -225.42099043 450.96204727 -225.42539918 442.82904804 C-225.42817026 437.73952574 -225.43240927 432.65000532 -225.43690336 427.56048429 C-225.44909279 413.43843363 -225.45939116 399.31638447 -225.46277845 385.19432867 C-225.46299802 384.2916931 -225.46321758 383.38905754 -225.4634438 382.45906938 C-225.46366208 381.55439742 -225.46388036 380.64972547 -225.46410525 379.71763921 C-225.4645487 377.88474556 -225.46499526 376.05185191 -225.46544492 374.21895826 C-225.46566635 373.30979937 -225.46588778 372.40064049 -225.46611592 371.46393134 C-225.4700561 356.76294344 -225.48748769 342.06200534 -225.51080444 327.36103664 C-225.53461118 312.22747614 -225.5469846 297.09394051 -225.54814637 281.960361 C-225.54905817 273.47988081 -225.55468411 264.99946544 -225.57296598 256.51900327 C-225.58849373 249.29111031 -225.59341395 242.06330219 -225.58522788 234.83539568 C-225.58136495 231.15845515 -225.58203231 227.48168479 -225.59628522 223.80476606 C-225.82622107 160.73808781 -206.23590727 104.96126441 -161.66271055 59.43429029 C-156.45090811 54.34144482 -150.99267361 49.69662145 -145.22521055 45.24679029 C-144.67381406 44.81898267 -144.12241758 44.39117506 -143.55431211 43.95040357 C-100.71244697 10.92101448 -53.15372772 -0.1265073 0 0 Z " fill="#FF585F" transform="translate(873.2252105474472,251.75320971012115)"/>
<path d="M0 0 C7.17750198 0.58591853 13.92457153 2.49726778 20.84033203 4.40869141 C24.63573937 5.447859 28.44339367 6.44029945 32.25 7.4375 C33.86981968 7.86317468 35.48961111 8.28895686 37.109375 8.71484375 C37.91826172 8.92737793 38.72714844 9.13991211 39.56054688 9.35888672 C43.54063556 10.40489481 47.52029956 11.45251591 51.5 12.5 C53.08333122 12.91667468 54.66666456 13.33334134 56.25 13.75 C84.75 21.25 84.75 21.25 87.12402344 21.87475586 C88.71060355 22.29226836 90.29719212 22.70974873 91.88378906 23.12719727 C95.79251595 24.155662 99.7011041 25.18464745 103.609375 26.21484375 C112.23656341 28.48822448 120.86667997 30.750009 129.5 33 C138.14646973 35.25341804 146.78992761 37.51786896 155.4296875 39.796875 C158.41270891 40.58341138 161.39706174 41.36451649 164.3828125 42.140625 C172.62431355 44.28814126 180.84173057 46.50666797 189.04492188 48.79663086 C202.24141979 52.47696785 215.47280006 55.93879941 228.77612305 59.21020508 C237.54792105 61.37014061 246.27693098 63.65278838 255 66 C258.08211138 66.81717065 261.16594976 67.62768221 264.25 68.4375 C265.04390137 68.64648926 265.83780273 68.85547852 266.65576172 69.07080078 C270.62058796 70.11417611 274.58642652 71.15335565 278.5546875 72.18359375 C282.47689869 73.20337707 286.39455008 74.23945562 290.31005859 75.28466797 C292.23118748 75.79555085 294.15352872 76.30188365 296.07666016 76.80517578 C319.69665319 83.00865678 334.43696492 88.72196729 347.109375 110.24609375 C348.22216492 112.16208321 349.33150366 114.08008096 350.4375 116 C350.98237061 116.94496338 351.52724121 117.88992676 352.08862305 118.86352539 C352.59433838 119.75418701 353.10005371 120.64484863 353.62109375 121.5625 C354.30836548 122.77099609 354.30836548 122.77099609 355.00952148 124.00390625 C356 126 356 126 356 128 C346.62600831 127.42409894 337.38739717 126.3225413 328.0947876 125.01657104 C324.01504972 124.44401445 319.93338293 123.88561345 315.8515625 123.328125 C314.60866959 123.15826332 314.60866959 123.15826332 313.34066772 122.98497009 C305.27809936 121.88985532 297.20429885 120.90014192 289.125 119.9375 C286.38406497 119.60978876 283.64318594 119.28161176 280.90234375 118.953125 C280.23471512 118.87312256 279.56708649 118.79312012 278.87922668 118.71069336 C262.63840453 116.75885105 246.42313879 114.6059379 230.21484375 112.40234375 C226.96451168 111.96092738 223.71416639 111.51960862 220.46380615 111.07839966 C218.23984227 110.77639217 216.01592449 110.47404493 213.79205322 110.1713562 C201.27598195 108.47024348 188.75632551 106.8238333 176.21484375 105.3203125 C175.10210083 105.18658234 173.98935791 105.05285217 172.84289551 104.91506958 C167.53792562 104.27950834 162.23204186 103.65361668 156.92431641 103.04150391 C130.42477557 99.93925056 130.42477557 99.93925056 120.1875 94.375 C119.51630127 94.0229248 118.84510254 93.67084961 118.15356445 93.30810547 C116.76499388 92.5743436 115.38039826 91.8330073 114 91.08398438 C112.13452238 90.07291008 110.25692497 89.08937305 108.375 88.109375 C83.77848991 75.03012144 60.22291971 57.96767488 39 40 C37.95748863 39.13096145 36.91449472 38.26250152 35.87109375 37.39453125 C28.38150955 31.14023922 21.11084801 24.68147428 14 18 C13.32066406 17.36320312 12.64132812 16.72640625 11.94140625 16.0703125 C7.50920776 11.78618301 3.43583183 7.1276396 0 2 C0 1.34 0 0.68 0 0 Z " fill="#FFFDFD" transform="translate(790,434)"/>
<path d="M0 0 C7.32550632 -0.24539537 14.37388168 0.70427403 21.625 1.6875 C22.98667095 1.86840285 24.34840789 2.04880964 25.71020508 2.22875977 C28.6220831 2.61420624 31.53356519 3.00248499 34.44482422 3.39257812 C39.03608286 4.0065736 43.62917759 4.60599867 48.22265625 5.203125 C73.60494323 8.50821195 73.60494323 8.50821195 85.44921875 10.18359375 C86.13852478 10.28105896 86.82783081 10.37852417 87.5380249 10.47894287 C88.230755 10.57693176 88.92348511 10.67492065 89.63720703 10.77587891 C112.85254184 14.05956732 136.11858685 16.92125566 159.38635254 19.80593872 C180.65452 22.44367125 201.89815055 25.23132837 223.12109375 28.2109375 C230.702379 29.27403181 238.28491713 30.30696278 245.88061523 31.26318359 C280.25287697 35.59736992 280.25287697 35.59736992 287.359375 44.5390625 C290.92405148 49.88607722 293.95187508 55.56231117 297.00537109 61.21191406 C297.87395439 62.77340255 298.81610103 64.29351112 299.76953125 65.8046875 C301 68 301 68 301 71 C292.33347631 71.3165079 283.66679132 71.62840926 275 71.9375 C273.69927551 71.98390625 272.39855103 72.0303125 271.05841064 72.078125 C254.37781478 72.67014393 237.69962213 73.19098858 221.01248169 73.55096436 C209.49093411 73.80389192 197.98707084 74.24635748 186.4753418 74.78295898 C170.34147691 75.53495909 154.20258988 76.24565463 138.05032349 76.40841675 C136.42818733 76.42737991 134.80612106 76.45474756 133.18429565 76.49172974 C117.55023449 76.82815339 104.7869275 72.85952294 90.75 65.9375 C89.29339966 65.22750854 89.29339966 65.22750854 87.80737305 64.50317383 C65.66822637 53.52101794 45.30375878 39.36956881 26 24 C25.071875 23.26523437 24.14375 22.53046875 23.1875 21.7734375 C18.15400507 17.72662197 13.27873592 13.52989449 8.5 9.1875 C7.99525146 8.73125244 7.49050293 8.27500488 6.97045898 7.80493164 C4.33568547 5.38022488 2.03502921 2.94941733 0 0 Z " fill="#FFFDFD" transform="translate(869,539)"/>
<path d="M0 0 C0.88880859 -0.02900391 1.77761719 -0.05800781 2.69335938 -0.08789062 C8.75412567 -0.14621036 12.26926806 0.6991051 17.1875 4.3125 C19.04296875 6.42578125 19.04296875 6.42578125 20.375 8.625 C20.85582031 9.40617188 21.33664062 10.18734375 21.83203125 10.9921875 C22.27933594 11.75789062 22.72664063 12.52359375 23.1875 13.3125 C23.60386719 13.99570312 24.02023437 14.67890625 24.44921875 15.3828125 C27.1875 19.9754386 27.1875 19.9754386 27.1875 22.3125 C17.56863878 25.01052606 7.9696587 27.26776707 -1.84161377 29.14794922 C-14.92147088 31.66013397 -27.94385306 34.38859362 -40.9375 37.3125 C-54.19480186 40.29465275 -67.46799651 43.18129583 -80.76806641 45.96679688 C-82.02925293 46.23169922 -83.29043945 46.49660156 -84.58984375 46.76953125 C-85.8005957 47.02347656 -87.01134766 47.27742187 -88.25878906 47.5390625 C-91.7640751 48.3019607 -95.24494352 49.1402607 -98.73046875 49.98828125 C-132.83451992 57.90896994 -169.91577839 37.68766637 -199.25 22.5 C-200.0838623 22.0683252 -200.91772461 21.63665039 -201.77685547 21.19189453 C-207.33420227 18.25030033 -212.77937875 15.09769019 -217.8125 11.3125 C-217.8125 10.9825 -217.8125 10.6525 -217.8125 10.3125 C-202.20859833 9.51558121 -186.60440508 8.72449924 -171 7.9375 C-169.28146757 7.85076775 -169.28146757 7.85076775 -167.52821732 7.76228333 C-138.63865486 6.30520542 -109.75242479 4.85235074 -80.8425293 3.85791016 C-73.39359676 3.59881034 -66.00535399 3.30023666 -58.58764648 2.54003906 C-52.20236306 2.01649862 -45.77836983 1.96683282 -39.375 1.8125 C-30.7505792 1.6041195 -22.17658927 1.32122884 -13.58032227 0.53955078 C-9.05412177 0.16825622 -4.53969115 0.0504784 0 0 Z " fill="#FFFDFD" transform="translate(1158.8125,620.6875)"/>
<path d="M0 0 C8.70843387 6.36977318 14.42395388 15.14994489 17.2109375 25.6171875 C17.48049916 28.41534324 17.49092926 31.1829589 17.4609375 33.9921875 C17.47253906 35.06726562 17.47253906 35.06726562 17.484375 36.1640625 C17.4404605 48.3283782 12.72722589 58.74200971 4.453125 67.578125 C0.74249526 70.95260013 -3.33667308 73.3471988 -7.7890625 75.6171875 C-8.43101562 75.94589844 -9.07296875 76.27460937 -9.734375 76.61328125 C-19.28498632 81.08879193 -32.75284704 81.35641697 -42.6640625 77.9921875 C-55.94701452 72.37550897 -64.31043807 63.91514896 -69.7890625 50.6171875 C-73.26012554 40.57250165 -73.62613053 27.95917553 -69.7265625 17.9921875 C-63.46756802 5.45671532 -53.96098796 -2.61631807 -40.7890625 -7.3828125 C-27.31761291 -11.75589744 -11.42758371 -7.43347679 0 0 Z " fill="#2358B4" transform="translate(622.7890625,1045.3828125)"/>
<path d="M0 0 C1.12540497 0.7394807 2.23259687 1.50802671 3.3125 2.3125 C5.8125182 4.30690528 5.8125182 4.30690528 8.3125 3.5625 C9.88855722 2.64618766 11.4550666 1.71235516 12.99609375 0.73828125 C18.44259754 -2.5560512 22.60920292 -4.12920099 29 -3 C32.35537627 -1.65784949 34.45789202 -0.54210798 37 2 C37.265625 3.875 37.265625 3.875 37.25 6 C37.25773438 7.051875 37.25773438 7.051875 37.265625 8.125 C37 10 37 10 35 12 C29.23056073 12.47290486 26.93772485 11.96263491 22 9 C19.19685211 8.62443261 16.85787838 8.76574767 14 9 C13.34 9.66 12.68 10.32 12 11 C12.495 11.886875 12.99 12.77375 13.5 13.6875 C16.63389836 21.10989085 15.80259843 29.53390182 13.25 37 C10.19657452 44.31549853 6.09809131 48.54566985 -1 52 C-8.58372639 55.07962579 -16.18423811 55.95090653 -24.26757812 56.81640625 C-25.20666016 56.92855469 -26.14574219 57.04070312 -27.11328125 57.15625 C-27.95673096 57.24712891 -28.80018066 57.33800781 -29.66918945 57.43164062 C-32.36604754 58.08925931 -33.90600272 59.21160988 -36 61 C-35.67 62.32 -35.34 63.64 -35 65 C-26.49860386 67.49845972 -17.69492202 68.18398157 -8.91137695 69.09912109 C-0.74351463 69.95987879 6.72778122 70.87140947 14 75 C15.0725 75.598125 16.145 76.19625 17.25 76.8125 C22.25994645 80.79768468 25.63866023 85.68833381 27 92 C27.76786137 100.00769718 26.53801307 106.86397871 22.3125 113.75 C11.41494091 124.35303046 -1.8000536 125.35591185 -16.24609375 125.38012695 C-29.16905071 125.18877754 -41.81425207 122.90734782 -51.4375 113.7109375 C-55.33181627 109.44666118 -55.4407122 105.0107873 -55.31640625 99.43359375 C-54.69710391 94.67031773 -51.94378427 92.02468007 -48.8125 88.625 C-44.84871034 86.33481042 -41.47692107 86.43330113 -37 87 C-33.9375 88 -33.9375 88 -32 89 C-32 89.66 -32 90.32 -32 91 C-32.763125 91.433125 -33.52625 91.86625 -34.3125 92.3125 C-37.47463047 94.29802379 -38.55056569 95.56712928 -40 99 C-40.57577057 102.88842316 -40.34457842 106.05240933 -39 109.75 C-33.97053533 115.40814775 -27.34886956 116.66454003 -20.02246094 117.12402344 C-5.50003954 117.8582039 -5.50003954 117.8582039 7.7421875 112.79296875 C10.60595984 110.11526071 11.82962579 107.62274454 12.23828125 103.73046875 C12.36135043 99.51372993 12.23450374 96.55057401 10.5625 92.625 C2.5552717 84.42247345 -9.47144685 84.79169025 -20.21362305 83.86645508 C-40.03687703 82.10909718 -40.03687703 82.10909718 -47.125 74.8125 C-48.49213569 70.41813529 -48.97713779 66.53474511 -48 62 C-45.27203091 57.50555912 -41.91353824 54.00107807 -37 52 C-34.25 51.875 -34.25 51.875 -32 52 C-32 51.34 -32 50.68 -32 50 C-32.721875 49.7525 -33.44375 49.505 -34.1875 49.25 C-40.80766601 46.307704 -43.80431981 41.87143595 -46.82421875 35.49609375 C-49.25427155 28.27052146 -49.57692609 19.69897851 -46.5625 12.5625 C-42.27733573 5.66113018 -35.50352639 0.29738074 -27.8671875 -2.37890625 C-18.67244266 -4.3706834 -8.62902995 -3.90901545 0 0 Z " fill="#2358B4" transform="translate(785,1040)"/>
<path d="M0 0 C4.20253696 3.64315938 6.51850165 8.85234217 8.90185547 13.77978516 C10.29617144 16.59879571 11.87795441 19.2815969 13.48046875 21.98583984 C18.2517545 30.04061421 19.86597344 35.64097575 19 45 C16.24140974 54.34889272 11.64709058 63.03204697 7.125 71.625 C6.53847656 72.76195312 5.95195313 73.89890625 5.34765625 75.0703125 C-3.30049817 91.64435789 -13.77532312 108.81761658 -30 119 C-30.66 119 -31.32 119 -32 119 C-32.10666611 105.22037961 -32.07749369 91.4594279 -31.5625 77.6875 C-31.52326416 76.62362061 -31.48402832 75.55974121 -31.44360352 74.46362305 C-31.22959934 69.18170431 -30.91978837 63.92482549 -30.48828125 58.65625 C-30.02239507 52.40074389 -29.87410538 46.1660633 -29.7890625 39.89453125 C-29.77473679 38.91445602 -29.76041107 37.9343808 -29.74565125 36.92460632 C-29.68790037 32.84422819 -29.63301763 28.76399962 -29.59863281 24.68334961 C-29.57116835 21.67007155 -29.52538958 18.65752847 -29.4765625 15.64453125 C-29.47330963 14.7196138 -29.47005676 13.79469635 -29.46670532 12.8417511 C-29.45013885 11.98623154 -29.43357239 11.13071198 -29.41650391 10.24926758 C-29.40437363 9.12347038 -29.40437363 9.12347038 -29.39199829 7.97492981 C-28.89389833 5.46544829 -27.96141346 4.59211101 -26 3 C-18.91413948 -0.50685154 -7.63908776 -3.07864927 0 0 Z " fill="#FFFDFD" transform="translate(1191,652)"/>
<path d="M0 0 C39.93 0 79.86 0 121 0 C121.62744335 7.52932025 122.14056302 14.74394014 122.0625 22.25 C122.05798828 23.10207031 122.05347656 23.95414063 122.04882812 24.83203125 C122.03727744 26.88805281 122.0193553 28.9440371 122 31 C120.02 31 118.04 31 116 31 C115.65388672 29.58847656 115.65388672 29.58847656 115.30078125 28.1484375 C113.03900876 18.48855517 113.03900876 18.48855517 107 11 C99.80410806 7.94018086 92.78473289 7.56302816 85.0625 7.6875 C84.03576172 7.68427734 83.00902344 7.68105469 81.95117188 7.67773438 C76.13612054 7.56746813 76.13612054 7.56746813 71 10 C70.69795597 13.01287888 70.59076904 15.82087501 70.61181641 18.83666992 C70.60655945 19.75230713 70.60130249 20.66794434 70.59588623 21.61132812 C70.58263778 24.65121314 70.59144508 27.69057799 70.6015625 30.73046875 C70.59954229 32.84076539 70.59663129 34.95106135 70.59286499 37.06135559 C70.58843435 41.49254986 70.59489326 45.92356307 70.60888672 50.35473633 C70.6259267 56.02641168 70.61617496 61.69765953 70.59816933 67.36931896 C70.58730682 71.73172703 70.59079008 76.09403453 70.5985527 80.45644569 C70.60055061 82.5467668 70.59810986 84.6370971 70.59111404 86.72740746 C70.58346499 89.65730153 70.5951547 92.58651388 70.61181641 95.51635742 C70.60574371 96.37636856 70.59967102 97.2363797 70.59341431 98.12245178 C70.65658705 104.14198682 71.45259474 109.31169843 75.765625 113.86328125 C78.73376868 115.3732984 81.45437768 115.7590691 84.75 116.1875 C86.50570313 116.42533203 86.50570313 116.42533203 88.296875 116.66796875 C89.18890625 116.77753906 90.0809375 116.88710937 91 117 C91 119.31 91 121.62 91 124 C70.87 124 50.74 124 30 124 C30 121.69 30 119.38 30 117 C30.88042969 116.90203125 31.76085938 116.8040625 32.66796875 116.703125 C33.82941406 116.55359375 34.99085937 116.4040625 36.1875 116.25 C37.91033203 116.04117187 37.91033203 116.04117187 39.66796875 115.828125 C43.43256612 114.89249236 45.25581557 113.71006491 48 111 C49.69107139 108.1718765 50.25324351 106.0783436 50.2784729 102.79852295 C50.28963638 101.96843719 50.30079987 101.13835144 50.31230164 100.28311157 C50.31446182 99.3811203 50.31662201 98.47912903 50.31884766 97.54980469 C50.33391609 96.11515366 50.33391609 96.11515366 50.34928894 94.65151978 C50.38016818 91.49164427 50.39716939 88.33185368 50.4140625 85.171875 C50.43277032 82.98040026 50.45234344 80.78893275 50.4727478 78.59747314 C50.52411572 72.83044698 50.5637166 67.06339745 50.60089111 61.29626465 C50.64090148 55.41099241 50.69200737 49.52581776 50.7421875 43.640625 C50.83900201 32.09381851 50.92338919 20.54695697 51 9 C45.94077227 7.65644344 41.0259827 7.81578512 35.8125 7.8125 C34.30719727 7.79413086 34.30719727 7.79413086 32.77148438 7.77539062 C21.76948864 7.68778336 21.76948864 7.68778336 12.125 12.25 C7.67282675 18.01163597 6.45844147 22.88625303 6 30 C4.02 30 2.04 30 0 30 C0 20.1 0 10.2 0 0 Z " fill="#2257B4" transform="translate(1326,1000)"/>
<path d="M0 0 C6.43461351 7.56067087 7.07454513 15.92664714 7.00390625 25.515625 C7.01332748 26.68583191 7.02274872 27.85603882 7.03245544 29.06170654 C7.06094428 32.77048589 7.06418849 36.47862044 7.0625 40.1875 C7.06611136 43.91056671 7.07565321 47.63317026 7.10325623 51.35614014 C7.12000737 53.66438945 7.12294984 55.97279176 7.11024475 58.28106689 C7.14777795 63.99764417 7.32309092 68.10359834 10.5 72.9375 C11.758125 72.97875 13.01625 73.02 14.3125 73.0625 C15.02019531 73.08570313 15.72789062 73.10890625 16.45703125 73.1328125 C18.81359719 73.07004462 18.81359719 73.07004462 21.5 70.9375 C22.16 72.2575 22.82 73.5775 23.5 74.9375 C19.17130012 79.79089077 15.24415095 82.49059989 8.81640625 83.2578125 C4.49099898 83.43388064 1.14904449 83.17351618 -2.9375 81.6875 C-6.87160487 77.4655338 -8.03091572 72.43360355 -9.5 66.9375 C-9.82871094 67.44539063 -10.15742187 67.95328125 -10.49609375 68.4765625 C-15.59701671 75.85838598 -21.78291946 80.55814799 -30.5 82.9375 C-38.38020296 83.72369194 -46.01470467 83.98161859 -52.5 78.9375 C-56.8641294 74.45852509 -58.78410919 69.85988544 -58.9375 63.625 C-58.81470364 57.91496912 -57.3400534 54.14889923 -53.5 49.9375 C-48.99075369 45.62105872 -44.29076598 42.40373256 -38.75 39.5625 C-38.03207275 39.18746338 -37.31414551 38.81242676 -36.57446289 38.42602539 C-28.10545154 34.08921501 -19.31971503 30.49055754 -10.5 26.9375 C-9.80531733 15.74821143 -9.80531733 15.74821143 -14.5 5.9375 C-18.13846689 2.38777621 -21.12282257 1.6339347 -26.0625 1.375 C-29.81800079 1.53784014 -31.23507598 1.76276288 -34.4375 3.875 C-36.605978 7.09486127 -38.1145378 10.23891217 -39.5078125 13.8515625 C-40.58030091 16.1063216 -41.53630149 17.40110997 -43.5 18.9375 C-47.08172989 19.32823417 -49.50061333 19.49608577 -52.6875 17.71484375 C-54.5 15.9375 -54.5 15.9375 -55.06640625 13.66796875 C-55.05875247 8.68536037 -54.93242061 4.92572592 -51.1796875 1.18359375 C-39.05035803 -7.81467625 -12.53243471 -8.76959451 0 0 Z " fill="#2458B4" transform="translate(886.5,1042.0625)"/>
<path d="M0 0 C0.99 4.95 1.98 9.9 3 15 C4.0725 13.80375 5.145 12.6075 6.25 11.375 C13.63288632 3.93928444 23.08763001 -0.2158991 33.5 -0.3125 C41.50296389 -0.3125 48.87135338 0.41735193 55.15625 5.87109375 C63.13113792 14.51600299 63.13002828 23.53273689 63.140625 34.78515625 C63.15894098 37.11264009 63.17851016 39.44011434 63.19921875 41.76757812 C63.22825748 45.42375052 63.25000223 49.07930018 63.25048828 52.7355957 C63.25381629 56.27350653 63.28831184 59.80999242 63.328125 63.34765625 C63.3210553 64.44046402 63.3139856 65.53327179 63.30670166 66.65919495 C63.38541962 72.84276871 63.38541962 72.84276871 66.30371094 78.17749023 C69.5670373 80.38327902 72.1020808 80.77071064 76 81 C76 82.98 76 84.96 76 87 C62.14 87 48.28 87 34 87 C34 85.02 34 83.04 34 81 C34.61488281 80.90203125 35.22976563 80.8040625 35.86328125 80.703125 C36.67152344 80.55359375 37.47976563 80.4040625 38.3125 80.25 C39.51326172 80.04117187 39.51326172 80.04117187 40.73828125 79.828125 C43.63884707 78.76608708 44.39648812 77.61422154 46 75 C46.44963499 72.6482521 46.44963499 72.6482521 46.38818359 70.09887695 C46.40236832 68.64134758 46.40236832 68.64134758 46.4168396 67.15437317 C46.41076691 66.10956284 46.40469421 65.0647525 46.3984375 63.98828125 C46.40130768 62.90548386 46.40417786 61.82268646 46.40713501 60.70707703 C46.40917634 58.41482013 46.40364173 56.12254584 46.39111328 53.83032227 C46.37513906 50.34285837 46.39092004 46.85656721 46.41015625 43.36914062 C46.40817231 41.1380183 46.40432552 38.90689669 46.3984375 36.67578125 C46.40451019 35.64109207 46.41058289 34.60640289 46.4168396 33.5403595 C46.34294698 25.82448273 45.55570196 19.06684235 40.5 13 C35.32433426 8.85946741 29.32915877 9.58880625 23 10 C16.40168428 11.02640467 12.92120888 14.71286142 8.6640625 19.6484375 C5.86608732 23.60238365 4.74878611 27.08222808 4.75708008 31.91040039 C4.75400345 32.85810806 4.75092682 33.80581573 4.74775696 34.78224182 C4.75494247 35.79382858 4.76212799 36.80541534 4.76953125 37.84765625 C4.76998947 38.89650497 4.77044769 39.9453537 4.7709198 41.02598572 C4.77393579 43.23909642 4.78180252 45.45220511 4.79418945 47.6652832 C4.81245216 51.05362462 4.81469896 54.44169261 4.81445312 57.83007812 C4.81936848 59.9817732 4.82519688 62.13346642 4.83203125 64.28515625 C4.83314407 65.29876724 4.8342569 66.31237823 4.83540344 67.35670471 C4.84178329 68.30126022 4.84816315 69.24581573 4.85473633 70.21899414 C4.85854813 71.04774551 4.86235992 71.87649689 4.86628723 72.73036194 C4.94851073 75.31837979 4.94851073 75.31837979 6 79 C9.63 79.66 13.26 80.32 17 81 C17 82.98 17 84.96 17 87 C3.14 87 -10.72 87 -25 87 C-25 85.02 -25 83.04 -25 81 C-24.38511719 80.91363281 -23.77023437 80.82726563 -23.13671875 80.73828125 C-22.32847656 80.59777344 -21.52023437 80.45726562 -20.6875 80.3125 C-19.88699219 80.18488281 -19.08648438 80.05726562 -18.26171875 79.92578125 C-15.11105761 78.63613239 -14.49342743 77.01724083 -13 74 C-12.55165881 71.2753984 -12.55165881 71.2753984 -12.61181641 68.37109375 C-12.60235992 67.26644775 -12.59290344 66.16180176 -12.5831604 65.02368164 C-12.58923309 63.8402417 -12.59530579 62.65680176 -12.6015625 61.4375 C-12.59869232 60.21345459 -12.59582214 58.98940918 -12.59286499 57.72827148 C-12.59082534 55.14273617 -12.59634821 52.5571854 -12.60888672 49.97167969 C-12.62494067 46.01462288 -12.6090335 42.05858754 -12.58984375 38.1015625 C-12.5918262 35.58853941 -12.5956699 33.07551696 -12.6015625 30.5625 C-12.59245346 28.78734009 -12.59245346 28.78734009 -12.5831604 26.97631836 C-12.59261688 25.87167236 -12.60207336 24.76702637 -12.61181641 23.62890625 C-12.61420319 22.66025635 -12.61658997 21.69160645 -12.61904907 20.69360352 C-13.07279833 17.48526225 -14.08243825 15.59402106 -16 13 C-18.47061919 11.97726136 -18.47061919 11.97726136 -21.1875 11.6875 C-22.08855469 11.54699219 -22.98960937 11.40648437 -23.91796875 11.26171875 C-24.60503906 11.17535156 -25.29210937 11.08898438 -26 11 C-26 9.35 -26 7.7 -26 6 C-5.78640777 0 -5.78640777 0 0 0 Z " fill="#275BB5" transform="translate(941,1037)"/>
<path d="M0 0 C5.23915659 4.24020989 9.6258941 10.70549503 10.75 17.4375 C10.84183457 19.49837573 10.88002537 21.56208529 10.875 23.625 C10.87886719 25.22408203 10.87886719 25.22408203 10.8828125 26.85546875 C10.75 29.4375 10.75 29.4375 9.75 30.4375 C7.97008076 30.53120624 6.18643261 30.55494271 4.40405273 30.55102539 C3.2629454 30.55094986 2.12183807 30.55087433 0.94615173 30.55079651 C-0.2954924 30.54563522 -1.53713654 30.54047394 -2.81640625 30.53515625 C-4.71204567 30.53303383 -4.71204567 30.53303383 -6.64598083 30.53086853 C-10.01124889 30.52620582 -13.3764499 30.5172148 -16.74169922 30.50616455 C-20.1734967 30.49594846 -23.60530109 30.49137049 -27.03710938 30.48632812 C-33.77475824 30.4752738 -40.51237525 30.4585171 -47.25 30.4375 C-47.10191386 33.01322162 -46.95038855 35.58866342 -46.796875 38.1640625 C-46.75546387 38.89052979 -46.71405273 39.61699707 -46.67138672 40.36547852 C-46.06471965 50.42127133 -43.6441757 60.72742968 -36 67.875 C-30.67169004 71.9550291 -24.15693514 74.11267073 -17.41015625 73.77734375 C-8.07247934 72.30830597 -1.78530492 68.0857608 4.75 61.4375 C6.4 62.7575 8.05 64.0775 9.75 65.4375 C6.81276751 72.20203542 0.44513133 76.43387495 -6 79.61328125 C-17.28455201 83.74703207 -30.72213857 84.52935835 -41.89453125 79.6953125 C-52.84712205 73.84666534 -60.2694253 64.99185698 -64.33203125 53.33203125 C-67.38015303 42.26547998 -66.79164887 27.50223923 -61.25 17.4375 C-60.82589844 16.65503906 -60.40179687 15.87257813 -59.96484375 15.06640625 C-53.68857987 4.69920713 -44.78142986 -1.34436131 -33.43359375 -5.17578125 C-22.18289497 -7.16830214 -9.65622722 -6.3952124 0 0 Z " fill="#2559B5" transform="translate(1238.25,1042.5625)"/>
<path d="M0 0 C8.41784822 5.05070893 13.76170613 11.26815673 16.4375 20.875 C17.2696508 25.3686143 17.32920828 29.87999288 17.375 34.4375 C17.38442627 35.14583984 17.39385254 35.85417969 17.40356445 36.58398438 C17.34081771 46.80341566 13.62900396 55.03499341 8.4375 63.6875 C3.13067213 68.70747231 -2.69737134 71.17867266 -10 71.4375 C-17.59223135 71.05837449 -22.3569256 68.73650049 -27.625 63.3125 C-36.39429073 52.62117294 -36.9184371 38.07291556 -35.875 24.875 C-34.2446102 15.83798224 -31.10838847 8.19731275 -23.9453125 2.28125 C-16.9740925 -2.31515879 -7.83624775 -2.9297683 0 0 Z " fill="#FDFDFE" transform="translate(604.875,1046.125)"/>
<path d="M0 0 C22.77 0 45.54 0 69 0 C67.5983334 3.50416649 66.71355041 5.67613357 64.63671875 8.57421875 C64.1689502 9.23204346 63.70118164 9.88986816 63.21923828 10.56762695 C62.71376465 11.26718506 62.20829102 11.96674316 61.6875 12.6875 C61.15624512 13.43153076 60.62499023 14.17556152 60.07763672 14.94213867 C55.74576267 20.9985172 51.37071999 27.02413289 47.00097656 33.05322266 C41.73815085 40.32904017 36.59471871 47.68632863 31.45703125 55.05078125 C28.03009912 59.96262025 24.58105992 64.85862518 21.125 69.75 C20.60671631 70.48355713 20.08843262 71.21711426 19.55444336 71.97290039 C18.36995961 73.64883404 17.18503496 75.32445606 16 77 C20.51651109 77.12483978 25.03207334 77.2149125 29.54980469 77.2746582 C31.0822095 77.29959759 32.61449792 77.33356266 34.14648438 77.37719727 C47.36899222 77.77910537 47.36899222 77.77910537 59 72 C60.80975568 69.43226416 62.01065022 66.97427165 63 64 C63.33 63.01 63.66 62.02 64 61 C65.98 61 67.96 61 70 61 C69.88386526 63.29213303 69.75657951 65.58370169 69.625 67.875 C69.55539062 69.15117188 69.48578125 70.42734375 69.4140625 71.7421875 C68.94750561 76.53980076 67.94532795 81.27336024 67 86 C41.59 86 16.18 86 -10 86 C-7.72550033 81.45100065 -4.99927714 77.43500075 -2.125 73.25 C-1.54492188 72.40308594 -0.96484375 71.55617188 -0.3671875 70.68359375 C3.76612206 64.69029489 8.06450433 58.84998937 12.47802734 53.06152344 C16.90712966 47.21505035 21.01870509 41.17452671 25.12255859 35.09716797 C29.27730919 28.97589387 33.62805248 23.03152692 38.13085938 17.16210938 C38.59556641 16.55431641 39.06027344 15.94652344 39.5390625 15.3203125 C39.94334473 14.79711426 40.34762695 14.27391602 40.76416016 13.73486328 C42.30996602 11.56487189 43.65144141 9.29651163 45 7 C40.99757693 7.0693309 36.99603651 7.15751024 32.99438477 7.26245117 C31.63577457 7.29550934 30.27703334 7.32359961 28.91821289 7.34643555 C17.30828534 7.39248491 17.30828534 7.39248491 7.16796875 12.39453125 C5.70419869 14.40660314 5.03585788 16.31075268 4.3125 18.6875 C4.06113281 19.49574219 3.80976562 20.30398438 3.55078125 21.13671875 C3.36902344 21.75160156 3.18726563 22.36648438 3 23 C1.35 23 -0.3 23 -2 23 C-2.2792377 14.90210668 -1.1917446 8.34221217 0 0 Z " fill="#275BB5" transform="translate(1088,1038)"/>
<path d="M0 0 C1.4421661 23.03459738 -7.8248385 50.49702586 -23.07495117 67.88061523 C-25.31514507 70.32805682 -27.63970774 72.66751678 -30 75 C-31.01900391 76.03447266 -31.01900391 76.03447266 -32.05859375 77.08984375 C-38.93386953 83.62207043 -47.78225019 87.90505686 -57 90 C-56.18444048 84.43009916 -54.83939144 79.02360862 -53.5 73.5625 C-51.50952437 65.40030198 -49.58774675 57.22723709 -47.7421875 49.03125 C-47.34710919 47.28570237 -46.95192646 45.54017838 -46.55664062 43.79467773 C-45.9684592 41.19674562 -45.38295296 38.59837155 -44.80639648 35.99783325 C-39.71185188 13.03089327 -39.71185188 13.03089327 -34.875 7.625 C-23.95645154 1.45364652 -12.47314056 -0.1921408 0 0 Z " fill="#FFFDFD" transform="translate(1152,660)"/>
<path d="M0 0 C16.17 0 32.34 0 49 0 C49 1.98 49 3.96 49 6 C48.39671875 6.09796875 47.7934375 6.1959375 47.171875 6.296875 C40.64611844 7.48465306 40.64611844 7.48465306 36 12 C34.01695821 16.80285245 33.71386598 21.21378249 33.74121094 26.34106445 C33.7377063 27.15653748 33.73420166 27.9720105 33.73059082 28.81219482 C33.72182116 31.49597808 33.72760744 34.17949551 33.734375 36.86328125 C33.73302659 38.73886668 33.73108459 40.61445177 33.72857666 42.49003601 C33.72563152 46.41811455 33.729902 50.34610199 33.73925781 54.27416992 C33.75062831 59.29079385 33.74410423 64.30720318 33.73211288 69.32381916 C33.72485764 73.19731742 33.7271994 77.07076552 33.73236847 80.94426537 C33.73369607 82.79289971 33.73208865 84.64153872 33.72740936 86.49016762 C33.72228632 89.08381688 33.73013578 91.67712765 33.74121094 94.27075195 C33.73716248 95.02378098 33.73311401 95.77681 33.72894287 96.55265808 C33.77762504 102.758331 34.01919474 109.52399342 38 114.5 C42.23291787 116.61645894 46.31797356 116.81817373 51 117 C51 119.31 51 121.62 51 124 C33.51 124 16.02 124 -2 124 C-2 121.69 -2 119.38 -2 117 C-1.33613281 116.96261719 -0.67226562 116.92523437 0.01171875 116.88671875 C7.06183724 116.48354863 7.06183724 116.48354863 13 113 C15.19183925 107.95264788 15.29642629 103.36589418 15.29052734 97.96875 C15.29724457 97.08018311 15.30396179 96.19161621 15.31088257 95.27612305 C15.32981822 92.35069122 15.33378409 89.42548922 15.3359375 86.5 C15.34236696 84.46028551 15.34909543 82.42057194 15.35610962 80.38085938 C15.36807017 76.11065532 15.37179154 71.84053212 15.37060547 67.5703125 C15.370402 62.10261023 15.39773901 56.63542606 15.43214989 51.16784668 C15.45439787 46.95733259 15.4584437 42.7469438 15.45738602 38.53637695 C15.45974379 36.52057098 15.46857725 34.50476164 15.48405075 32.48901367 C15.50367421 29.66939013 15.49788768 26.85089215 15.48583984 24.03125 C15.50269836 22.78734497 15.50269836 22.78734497 15.51989746 21.51831055 C15.46252493 16.22708964 14.52520859 13.19012474 11 9 C7.50259224 7.06722203 3.93555202 6.54914679 0 6 C0 4.02 0 2.04 0 0 Z " fill="#2459B4" transform="translate(1264,1000)"/>
<path d="M0 0 C3.00197464 1.80118478 4.45166366 2.90332732 6 6 C6.29123466 9.34919863 6.36462337 11.35756835 4.6875 14.3125 C2.03487228 16.96512772 -0.10747145 17.00704731 -3.8125 17.25 C-7.85505051 17.22038425 -10.43302906 15.9023845 -14 14 C-17.65814604 13.26837079 -18.79780314 13.87362696 -22 15.875 C-29.99371849 23.23168694 -32.72168515 35.63712165 -33.28686523 46.08056641 C-33.41071023 49.67453103 -33.42248864 53.26441065 -33.39111328 56.86010742 C-33.37478722 59.09158285 -33.39118195 61.32130786 -33.41015625 63.55273438 C-33.4081775 64.98437896 -33.40434149 66.41602247 -33.3984375 67.84765625 C-33.39505371 69.12648682 -33.39166992 70.40531738 -33.38818359 71.72290039 C-32.97867961 75.17998968 -32.44296247 76.57474817 -30 79 C-27.74842467 79.90043828 -27.74842467 79.90043828 -25.3125 80.25 C-24.50425781 80.39953125 -23.69601562 80.5490625 -22.86328125 80.703125 C-22.24839844 80.80109375 -21.63351562 80.8990625 -21 81 C-21 82.98 -21 84.96 -21 87 C-35.19 87 -49.38 87 -64 87 C-64 85.02 -64 83.04 -64 81 C-63.22914063 80.85304688 -62.45828125 80.70609375 -61.6640625 80.5546875 C-60.66117188 80.33039063 -59.65828125 80.10609375 -58.625 79.875 C-57.12839844 79.56175781 -57.12839844 79.56175781 -55.6015625 79.2421875 C-52.81639125 78.24397178 -52.81639125 78.24397178 -51.85400391 75.64526367 C-50.66044683 70.55063798 -50.71462053 65.6493385 -50.734375 60.43359375 C-50.73150482 58.76611839 -50.73150482 58.76611839 -50.72857666 57.06495667 C-50.72721876 54.72079237 -50.73088757 52.37662045 -50.73925781 50.0324707 C-50.74997279 46.4466056 -50.73934365 42.86124031 -50.7265625 39.27539062 C-50.72788397 36.99479056 -50.73044609 34.71419081 -50.734375 32.43359375 C-50.73032654 31.36265976 -50.72627808 30.29172577 -50.72210693 29.18833923 C-50.72841125 28.18702469 -50.73471558 27.18571014 -50.74121094 26.15405273 C-50.74280212 25.2772435 -50.74439331 24.40043427 -50.74603271 23.49705505 C-51.03290949 20.6764276 -51.7699238 18.54756451 -53 16 C-56.26095954 13.58447442 -60.0516319 13.45558093 -64 13 C-64 11.02 -64 9.04 -64 7 C-60.08470852 6.16011547 -56.16756028 5.32923187 -52.25 4.5 C-50.58324219 4.14228516 -50.58324219 4.14228516 -48.8828125 3.77734375 C-47.81289063 3.55175781 -46.74296875 3.32617188 -45.640625 3.09375 C-44.65610352 2.88427734 -43.67158203 2.67480469 -42.65722656 2.45898438 C-40 2 -40 2 -36 2 C-35.80083984 3.57201172 -35.80083984 3.57201172 -35.59765625 5.17578125 C-35.41942765 6.55470778 -35.24103359 7.93361293 -35.0625 9.3125 C-34.97548828 10.00279297 -34.88847656 10.69308594 -34.79882812 11.40429688 C-34.40789865 14.40142288 -33.9584996 17.12450119 -33 20 C-32.67128906 19.443125 -32.34257813 18.88625 -32.00390625 18.3125 C-24.56681958 6.3809138 -14.77098441 -2.1199098 0 0 Z " fill="#2459B4" transform="translate(718,1037)"/>
<path d="M0 0 C0.00586624 0.88869781 0.01173248 1.77739563 0.01777649 2.69302368 C0.07574683 11.07953336 0.14784852 19.46577795 0.23571491 27.8520298 C0.28038955 32.16321559 0.31965198 36.47430752 0.34643555 40.78564453 C0.37249769 44.94850242 0.4129204 49.11099854 0.46318626 53.27363205 C0.47983536 54.85954657 0.49136182 56.44552363 0.49761391 58.03151321 C0.50727662 60.25788294 0.53535988 62.48333126 0.56762695 64.70947266 C0.58428154 66.60809555 0.58428154 66.60809555 0.60127258 68.54507446 C1.03895431 72.33753442 1.98043383 74.77448314 4 78 C6.67721008 79.35242176 6.67721008 79.35242176 9.6875 79.875 C10.68136719 80.09929687 11.67523437 80.32359375 12.69921875 80.5546875 C13.45847656 80.70164062 14.21773437 80.84859375 15 81 C15 82.98 15 84.96 15 87 C-0.18 87 -15.36 87 -31 87 C-31 85.02 -31 83.04 -31 81 C-30.24074219 80.84144531 -29.48148438 80.68289063 -28.69921875 80.51953125 C-27.20841797 80.16955078 -27.20841797 80.16955078 -25.6875 79.8125 C-24.70136719 79.59207031 -23.71523437 79.37164063 -22.69921875 79.14453125 C-19.2492484 77.68166394 -18.62467827 76.33142562 -17 73 C-16.56491998 70.3083165 -16.56491998 70.3083165 -16.64355469 67.44702148 C-16.63905304 65.81524208 -16.63905304 65.81524208 -16.63446045 64.15049744 C-16.64680725 62.98579422 -16.65915405 61.821091 -16.671875 60.62109375 C-16.67374817 59.41687271 -16.67562134 58.21265167 -16.67755127 56.97193909 C-16.68426678 54.42926255 -16.69817124 51.88659627 -16.71875 49.34399414 C-16.74991094 45.44863295 -16.75972314 41.55367663 -16.765625 37.65820312 C-16.77479509 35.18749506 -16.78517088 32.71679111 -16.796875 30.24609375 C-16.80112488 29.0793663 -16.80537476 27.91263885 -16.80975342 26.71055603 C-16.81936096 25.62585526 -16.82896851 24.54115448 -16.83886719 23.42358398 C-16.84569519 22.47047836 -16.85252319 21.51737274 -16.85955811 20.53538513 C-16.93536276 17.7244435 -16.93536276 17.7244435 -18 14 C-22.62 13.34 -27.24 12.68 -32 12 C-32 10.02 -32 8.04 -32 6 C-28.48024931 5.18276225 -24.95902137 4.37207078 -21.4375 3.5625 C-20.44685547 3.33240234 -19.45621094 3.10230469 -18.43554688 2.86523438 C-5.93648098 0 -5.93648098 0 0 0 Z " fill="#2559B5" transform="translate(1057,1037)"/>
<path d="M0 0 C-1.12871136 16.55443326 -12.66677459 31.37773341 -24.41015625 42.2265625 C-32.18539837 48.80656138 -42.5620321 55 -53 55 C-52.41179359 51.59939662 -51.55912651 48.66827304 -50.14453125 45.5234375 C-49.77239502 44.69287842 -49.40025879 43.86231934 -49.0168457 43.0065918 C-48.61941162 42.1381665 -48.22197754 41.26974121 -47.8125 40.375 C-47.40539795 39.48143799 -46.9982959 38.58787598 -46.57885742 37.66723633 C-39.91560103 23.17244752 -33.91420665 10.96090984 -18.51953125 4.55078125 C-6.14505731 0 -6.14505731 0 0 0 Z " fill="#FFFCFC" transform="translate(1103,671)"/>
<path d="M0 0 C4.13793544 1.78683576 6.56814869 4.22643762 9 8 C12.26783713 16.82316025 12.56169456 27.75536682 9.375 36.625 C7.24631531 41.0752119 5.32129954 43.55398139 1 46 C-3.0276439 46.94811325 -6.35305111 46.90122059 -10.02734375 44.890625 C-14.80988171 41.12930551 -17.5415931 36.67584102 -18.29980469 30.59594727 C-18.43837041 27.91136275 -18.45851427 25.25041623 -18.4375 22.5625 C-18.45748047 21.65951172 -18.47746094 20.75652344 -18.49804688 19.82617188 C-18.49364157 13.7424432 -17.51121047 9.05064186 -14 4 C-9.33923942 -0.23705507 -6.033629 -0.67040322 0 0 Z " fill="#FBFCFD" transform="translate(772,1043)"/>
<path d="M0 0 C0.8611475 23.29882414 0.8611475 23.29882414 -7.4375 33.5 C-11.71584781 37.97692092 -14.86848977 39.06706596 -21 39.375 C-24.57982893 39.30574736 -25.84656728 39.09269894 -29 37.1875 C-32.6874969 33.15430026 -33.51724628 30.70212985 -33.37109375 25.40625 C-32.49425182 19.72062234 -29.0372822 15.57820221 -24.6875 12 C-18.29720424 7.53048678 -11.01197708 4.36157711 -4 1 C-2 0 -2 0 0 0 Z " fill="#FAFBFD" transform="translate(877,1076)"/>
<path d="M0 0 C5.36787898 1.88869816 8.45991584 4.91983169 11 10 C11.54035594 14.9252115 11.54435469 18.86941718 9.375 23.375 C5.9264972 27.18650309 3.44069756 29.63678075 -1.80859375 30.41796875 C-7.72993077 30.69148869 -12.10583855 30.40138161 -16.6640625 26.41015625 C-19.95884572 22.93232952 -21.18202551 20.32869587 -21.4375 15.5625 C-21.27212511 11.03724172 -19.99033389 8.47525289 -17 5 C-11.3010612 -0.0204937 -7.46345948 -0.63152349 0 0 Z " fill="#FFFBFC" transform="translate(1241,1208)"/>
<path d="M0 0 C4.15458167 2.47693876 6.05481125 5.9493788 7.4375 10.5 C7.8125 13.875 7.8125 13.875 7.4375 16.5 C5.4375 18.5 5.4375 18.5 1.81396484 18.72705078 C0.25875311 18.72673357 -1.29648051 18.71540299 -2.8515625 18.6953125 C-4.07919815 18.69106766 -4.07919815 18.69106766 -5.33163452 18.68673706 C-7.95040393 18.67552532 -10.56883364 18.65041929 -13.1875 18.625 C-14.96093257 18.61497147 -16.73437049 18.6058454 -18.5078125 18.59765625 C-22.85950626 18.57558278 -27.2109455 18.54104644 -31.5625 18.5 C-31.27346751 17.06767505 -30.97630557 15.63698918 -30.67578125 14.20703125 C-30.4288855 13.01170776 -30.4288855 13.01170776 -30.17700195 11.79223633 C-28.69214798 6.25338296 -25.16657772 2.68743842 -20.5625 -0.5 C-14.22140638 -2.61369787 -6.19833952 -2.65476051 0 0 Z " fill="#FBFCFD" transform="translate(1224.5625,1046.5)"/>
<path d="M0 0 C2.97 0 5.94 0 9 0 C9.92210098 1.7888759 10.83733282 3.58129271 11.75 5.375 C12.26046875 6.37273437 12.7709375 7.37046875 13.296875 8.3984375 C15.39856523 12.84283748 17.17414005 17.43535013 19 22 C22.3 14.74 25.6 7.48 29 0 C31.97 0 34.94 0 38 0 C38 0.66 38 1.32 38 2 C37.01 2.33 36.02 2.66 35 3 C35 10.92 35 18.84 35 27 C35.99 27.33 36.98 27.66 38 28 C38 28.66 38 29.32 38 30 C34.04 30 30.08 30 26 30 C26 29.34 26 28.68 26 28 C26.99 27.67 27.98 27.34 29 27 C29 20.73 29 14.46 29 8 C25.7 15.26 22.4 22.52 19 30 C18.34 30 17.68 30 17 30 C13.7 22.41 10.4 14.82 7 7 C7 13.6 7 20.2 7 27 C7.99 27.33 8.98 27.66 10 28 C10 28.66 10 29.32 10 30 C6.7 30 3.4 30 0 30 C0 29.34 0 28.68 0 28 C0.99 27.67 1.98 27.34 3 27 C3 19.08 3 11.16 3 3 C2.01 2.67 1.02 2.34 0 2 C0 1.34 0 0.68 0 0 Z " fill="#FF5F66" transform="translate(551,1208)"/>
<path d="M0 0 C3.0625 2 3.0625 2 5 5 C5.94884067 9.67642901 5.66524378 12.93560995 3.125 17 C-0.40814057 20.32530877 -3.04661263 20.33074386 -7.73828125 20.29296875 C-11.0542278 19.86344199 -12.74987627 18.39075646 -15 16 C-16.77110054 12.45779891 -16.76559773 8.84728943 -16 5 C-12.09701149 -1.14200699 -6.65545583 -2.32629952 0 0 Z " fill="#FFF9F9" transform="translate(998,1218)"/>
<path d="M0 0 C0.99 0.33 1.98 0.66 3 1 C5.00875442 0.72428861 7.01178687 0.39764263 9 0 C9.33 1.32 9.66 2.64 10 4 C7.03 3.505 7.03 3.505 4 3 C4.12375 4.8871875 4.12375 4.8871875 4.25 6.8125 C4.22243685 10.71268574 4.22243685 10.71268574 2.5 12.9375 C-1.00638846 14.42771509 -4.20363944 14.68363662 -8 15 C-8 15.66 -8 16.32 -8 17 C-7.25234375 17.03738281 -6.5046875 17.07476563 -5.734375 17.11328125 C-4.25710938 17.21189453 -4.25710938 17.21189453 -2.75 17.3125 C-1.77546875 17.37050781 -0.8009375 17.42851563 0.203125 17.48828125 C3.313539 18.05736537 4.77373972 18.77373972 7 21 C7.5625 24.5 7.5625 24.5 7 28 C4.06694062 31.03082802 1.04576413 31.24426947 -3 31.4375 C-6.71689734 31.34319066 -7.88085036 31.07625577 -11.125 29 C-11.74375 28.34 -12.3625 27.68 -13 27 C-12.67 25.68 -12.34 24.36 -12 23 C-10.35 22.67 -8.7 22.34 -7 22 C-7.33 23.98 -7.66 25.96 -8 28 C-4.7 28 -1.4 28 2 28 C3.08084521 24.36380344 3.08084521 24.36380344 3 22 C2.24074219 21.95101563 1.48148438 21.90203125 0.69921875 21.8515625 C-0.79158203 21.73941406 -0.79158203 21.73941406 -2.3125 21.625 C-3.29863281 21.55539062 -4.28476563 21.48578125 -5.30078125 21.4140625 C-8 21 -8 21 -11 19 C-10.625 16.5625 -10.625 16.5625 -10 14 C-9.34 13.67 -8.68 13.34 -8 13 C-8.495 12.443125 -8.99 11.88625 -9.5 11.3125 C-11.30684791 8.5269428 -11.57035173 7.25915277 -11 4 C-7.96843613 -0.48671453 -5.17538894 -0.4704899 0 0 Z " fill="#FF696F" transform="translate(1287,1217)"/>
<path d="M0 0 C0.74507812 0.01353516 1.49015625 0.02707031 2.2578125 0.04101562 C4.08885416 0.07622796 5.91952169 0.13003149 7.75 0.1875 C7.75 0.8475 7.75 1.5075 7.75 2.1875 C6.76 2.1875 5.77 2.1875 4.75 2.1875 C7.225 8.6225 7.225 8.6225 9.75 15.1875 C13.08069088 8.97755032 13.08069088 8.97755032 14.75 2.1875 C14.09 2.1875 13.43 2.1875 12.75 2.1875 C12.75 1.5275 12.75 0.8675 12.75 0.1875 C15.39 0.1875 18.03 0.1875 20.75 0.1875 C20.75 0.8475 20.75 1.5075 20.75 2.1875 C20.09 2.1875 19.43 2.1875 18.75 2.1875 C18.51152344 2.96738281 18.27304687 3.74726562 18.02734375 4.55078125 C16.36753235 9.27642166 14.36018012 13.80658927 12.3125 18.375 C11.91740234 19.27669922 11.52230469 20.17839844 11.11523438 21.10742188 C10.72787109 21.97302734 10.34050781 22.83863281 9.94140625 23.73046875 C9.59279541 24.51446045 9.24418457 25.29845215 8.88500977 26.10620117 C7.71619808 28.24948352 6.64876073 29.65813619 4.75 31.1875 C2.0625 31.375 2.0625 31.375 -0.25 31.1875 C-0.0625 29.3125 -0.0625 29.3125 0.75 27.1875 C1.575 26.89875 2.4 26.61 3.25 26.3125 C4.075 25.94125 4.9 25.57 5.75 25.1875 C7.11982167 21.28141462 6.82260417 18.80295627 5.16796875 15.13671875 C4.44090776 13.70766784 3.69689238 12.28713575 2.9375 10.875 C2.56818359 10.14732422 2.19886719 9.41964844 1.81835938 8.66992188 C-0.00142393 4.76980311 -0.00142393 4.76980311 -3.25 2.1875 C-3.25 2.8475 -3.25 3.5075 -3.25 4.1875 C-4.36375 4.290625 -5.4775 4.39375 -6.625 4.5 C-7.82125 4.726875 -9.0175 4.95375 -10.25 5.1875 C-12.49234009 8.55101013 -12.52098215 9.81060056 -12.5 13.75 C-12.50515625 14.72066406 -12.5103125 15.69132812 -12.515625 16.69140625 C-12.49594496 19.36042937 -12.49594496 19.36042937 -10.25 21.1875 C-13.55 21.1875 -16.85 21.1875 -20.25 21.1875 C-19.59 20.5275 -18.93 19.8675 -18.25 19.1875 C-18.05150929 16.64214859 -17.97148225 14.23033241 -18 11.6875 C-17.99226562 10.99785156 -17.98453125 10.30820313 -17.9765625 9.59765625 C-17.8738695 5.43535614 -17.8738695 5.43535614 -20.25 2.1875 C-16.785 1.6925 -16.785 1.6925 -13.25 1.1875 C-12.92 1.8475 -12.59 2.5075 -12.25 3.1875 C-11.76015625 2.69636719 -11.2703125 2.20523437 -10.765625 1.69921875 C-7.24621566 -0.41570581 -3.9730609 -0.13688107 0 0 Z " fill="#FF6D73" transform="translate(763.25,1216.8125)"/>
<path d="M0 0 C3.02848464 2.06194699 4.6491022 3.53260921 5.515625 7.15625 C5.84907564 11.70330418 5.43421338 13.48106205 2.4375 17.0625 C-1.54335936 19.30625709 -3.50588566 19.73540053 -8 19 C-10.75329021 17.20437595 -12.52627461 15.94745078 -14 13 C-14.70153846 5.86769231 -14.70153846 5.86769231 -11.625 2.0625 C-7.32198817 -1.31843787 -5.37649402 -1.27577824 0 0 Z " fill="#2358B4" transform="translate(1053,995)"/>
<path d="M0 0 C5.36787898 1.88869816 8.45991584 4.91983169 11 10 C11.54035594 14.9252115 11.54435469 18.86941718 9.375 23.375 C5.9264972 27.18650309 3.44069756 29.63678075 -1.80859375 30.41796875 C-7.72993077 30.69148869 -12.10583855 30.40138161 -16.6640625 26.41015625 C-19.95884572 22.93232952 -21.18202551 20.32869587 -21.4375 15.5625 C-21.27212511 11.03724172 -19.99033389 8.47525289 -17 5 C-11.3010612 -0.0204937 -7.46345948 -0.63152349 0 0 Z M-14 6 C-16.03903014 10.36935029 -16.42728458 14.21441274 -16 19 C-14.4388359 23.05902667 -12.98573434 26.06099411 -9 28 C-3.69314269 28.50541498 -0.26885828 28.51553035 4 25 C7.08147944 20.14367551 6.73883067 14.53384175 6 9 C4.63696149 6.20577105 3.41912091 5.08156916 1 3 C-5.09149488 0.96950171 -9.53856162 1.15615262 -14 6 Z " fill="#FF6369" transform="translate(1241,1208)"/>
<path d="M0 0 C7.59 0 15.18 0 23 0 C23 2.31 23 4.62 23 7 C22.34 7 21.68 7 21 7 C20.67 6.01 20.34 5.02 20 4 C17.56612247 2.78306124 15.58161154 2.68040104 12.875 2.4375 C11.26625 2.293125 9.6575 2.14875 8 2 C8 5.63 8 9.26 8 13 C9.98 12.67 11.96 12.34 14 12 C14.33 11.01 14.66 10.02 15 9 C15.66 9 16.32 9 17 9 C17 12.63 17 16.26 17 20 C16.34 20 15.68 20 15 20 C14.67 19.01 14.34 18.02 14 17 C10.99152582 15.77479736 10.99152582 15.77479736 8 15 C8.33 18.96 8.66 22.92 9 27 C10.60875 27.020625 12.2175 27.04125 13.875 27.0625 C14.77992188 27.07410156 15.68484375 27.08570313 16.6171875 27.09765625 C19.0168585 27.16249257 19.0168585 27.16249257 21 26 C22.13350534 23.98330173 22.13350534 23.98330173 23 22 C23.33 22 23.66 22 24 22 C24 24.64 24 27.28 24 30 C15.75 30 7.5 30 -1 30 C0 28 0 28 3 27 C3 19.08 3 11.16 3 3 C2.01 2.67 1.02 2.34 0 2 C0 1.34 0 0.68 0 0 Z " fill="#FF5B62" transform="translate(671,1208)"/>
<path d="M0 0 C7.59 0 15.18 0 23 0 C23 2.31 23 4.62 23 7 C22.34 7 21.68 7 21 7 C20.67 6.01 20.34 5.02 20 4 C17.56612247 2.78306124 15.58161154 2.68040104 12.875 2.4375 C11.26625 2.293125 9.6575 2.14875 8 2 C8 5.63 8 9.26 8 13 C9.98 12.67 11.96 12.34 14 12 C14.33 11.01 14.66 10.02 15 9 C15.66 9 16.32 9 17 9 C17 12.63 17 16.26 17 20 C16.34 20 15.68 20 15 20 C14.67 19.01 14.34 18.02 14 17 C10.99152582 15.77479736 10.99152582 15.77479736 8 15 C8.33 18.96 8.66 22.92 9 27 C10.60875 27.020625 12.2175 27.04125 13.875 27.0625 C14.77992188 27.07410156 15.68484375 27.08570313 16.6171875 27.09765625 C19.0168585 27.16249257 19.0168585 27.16249257 21 26 C22.13350534 23.98330173 22.13350534 23.98330173 23 22 C23.33 22 23.66 22 24 22 C24 24.64 24 27.28 24 30 C16.08 30 8.16 30 0 30 C0 29.34 0 28.68 0 28 C0.99 27.67 1.98 27.34 3 27 C3 19.08 3 11.16 3 3 C2.01 2.67 1.02 2.34 0 2 C0 1.34 0 0.68 0 0 Z " fill="#FF5A61" transform="translate(797,1208)"/>
<path d="M0 0 C7.59 0 15.18 0 23 0 C23 2.31 23 4.62 23 7 C22.34 7 21.68 7 21 7 C20.78601563 6.35546875 20.57203125 5.7109375 20.3515625 5.046875 C19.1526477 2.72160885 19.1526477 2.72160885 16.3984375 2.390625 C14.90183594 2.32101562 14.90183594 2.32101562 13.375 2.25 C11.60125 2.1675 9.8275 2.085 8 2 C8 5.96 8 9.92 8 14 C10.99152582 13.22520264 10.99152582 13.22520264 14 12 C14.33 11.01 14.66 10.02 15 9 C15.66 9 16.32 9 17 9 C17 12.63 17 16.26 17 20 C16.34 20 15.68 20 15 20 C14.67 19.01 14.34 18.02 14 17 C10.99152582 15.77479736 10.99152582 15.77479736 8 15 C8.14037521 16.81293089 8.28744889 18.6253443 8.4375 20.4375 C8.55931641 21.95150391 8.55931641 21.95150391 8.68359375 23.49609375 C8.73211468 25.93640779 8.73211468 25.93640779 10 27 C16.74211274 27.75380733 16.74211274 27.75380733 22.625 25 C23.07875 24.34 23.5325 23.68 24 23 C24 25.31 24 27.62 24 30 C16.08 30 8.16 30 0 30 C0 29.34 0 28.68 0 28 C0.99 27.67 1.98 27.34 3 27 C3 19.08 3 11.16 3 3 C2.01 2.67 1.02 2.34 0 2 C0 1.34 0 0.68 0 0 Z " fill="#FF5E64" transform="translate(922,1208)"/>
<path d="M0 0 C0 6.6 0 13.2 0 20 C5.70415753 15.92570064 5.70415753 15.92570064 7 13 C6.01 13 5.02 13 4 13 C4 12.34 4 11.68 4 11 C7.3 11 10.6 11 14 11 C14 11.66 14 12.32 14 13 C12.36209288 14.04644066 10.68991979 15.0398183 9 16 C7.65368175 16.98244845 6.31558703 17.97676564 5 19 C6.95616637 23.62366596 9.96962437 27.79274963 14.3125 30.375 C15.1478125 30.684375 15.1478125 30.684375 16 31 C16 31.33 16 31.66 16 32 C12.37 32 8.74 32 5 32 C5.66 31.67 6.32 31.34 7 31 C4.1204024 26.42251491 4.1204024 26.42251491 0 23 C0.32960216 28.01535052 0.32960216 28.01535052 3 32 C-0.63 32 -4.26 32 -8 32 C-7.67 31.34 -7.34 30.68 -7 30 C-6.01 30 -5.02 30 -4 30 C-4 21.09 -4 12.18 -4 3 C-5.32 3 -6.64 3 -8 3 C-8 2.34 -8 1.68 -8 1 C-5 0 -5 0 0 0 Z " fill="#FF646B" transform="translate(621,1206)"/>
<path d="M0 0 C0.33 4.29 0.66 8.58 1 13 C2.32 12.34 3.64 11.68 5 11 C10.9281263 11.31200665 10.9281263 11.31200665 13.6796875 13.078125 C15.69576259 16.01276685 15.49403928 19.11664378 15.5625 22.5625 C15.41829922 27.76174417 15.41829922 27.76174417 18 32 C14.37 32 10.74 32 7 32 C7.33 31.34 7.66 30.68 8 30 C8.99 30 9.98 30 11 30 C10.88628503 27.70774565 10.75869036 25.41617612 10.625 23.125 C10.55539062 21.84882812 10.48578125 20.57265625 10.4140625 19.2578125 C10.32758894 15.91938301 10.32758894 15.91938301 8 14 C4.70285207 14.32971479 3.3773161 14.6226839 1 17 C0.67972695 20.05819227 0.67972695 20.05819227 0.75 23.5 C0.74484375 24.6653125 0.7396875 25.830625 0.734375 27.03125 C0.69074227 30.11826065 0.69074227 30.11826065 3 32 C-0.3 32 -3.6 32 -7 32 C-6.34 31.34 -5.68 30.68 -5 30 C-4.62760773 27.18597317 -4.62760773 27.18597317 -4.5859375 23.8984375 C-4.54726562 22.68671875 -4.50859375 21.475 -4.46875 20.2265625 C-4.4378125 18.95554687 -4.406875 17.68453125 -4.375 16.375 C-4.33632812 15.09625 -4.29765625 13.8175 -4.2578125 12.5 C-4.16328951 9.33347983 -4.07773643 6.1669696 -4 3 C-4.99 3 -5.98 3 -7 3 C-7 2.34 -7 1.68 -7 1 C-4.50935112 0.31292445 -2.62113708 0 0 0 Z " fill="#FF686E" transform="translate(1188,1206)"/>
<path d="M0 0 C3.63 0 7.26 0 11 0 C11 0.66 11 1.32 11 2 C10.01 2 9.02 2 8 2 C8.33 3.0725 8.66 4.145 9 5.25 C10 9 10 9 10 13 C10.66 13 11.32 13 12 13 C12.19335938 12.39671875 12.38671875 11.7934375 12.5859375 11.171875 C12.84632812 10.37265625 13.10671875 9.5734375 13.375 8.75 C13.63023438 7.96109375 13.88546875 7.1721875 14.1484375 6.359375 C14.95173667 4.13372042 15.89711662 2.09068328 17 0 C19 1 19 1 20.0703125 3.72265625 C20.41835937 4.82480469 20.76640625 5.92695312 21.125 7.0625 C21.47820312 8.16722656 21.83140625 9.27195312 22.1953125 10.41015625 C22.46085937 11.26480469 22.72640625 12.11945313 23 13 C24.32 9.37 25.64 5.74 27 2 C26.34 2 25.68 2 25 2 C25 1.34 25 0.68 25 0 C27.64 0 30.28 0 33 0 C33 2 33 2 31.61401367 3.38793945 C31.08138916 3.91991943 30.54876465 4.45189941 30 5 C28.9793666 6.80888124 28.9793666 6.80888124 28.17578125 8.79296875 C27.86962891 9.50517578 27.56347656 10.21738281 27.24804688 10.95117188 C26.93931641 11.68916016 26.63058594 12.42714844 26.3125 13.1875 C25.83200195 14.31188477 25.83200195 14.31188477 25.34179688 15.45898438 C24.55475259 17.30325232 23.77650856 19.1512714 23 21 C22.34 21 21.68 21 21 21 C19.35 17.04 17.7 13.08 16 9 C14.35 12.96 12.7 16.92 11 21 C10.34 21 9.68 21 9 21 C6.85671642 14.70695459 4.87724961 8.37732315 3 2 C2.01 2 1.02 2 0 2 C0 1.34 0 0.68 0 0 Z " fill="#FF696F" transform="translate(1119,1217)"/>
<path d="M0 0 C9.57 0 19.14 0 29 0 C29 2.31 29 4.62 29 7 C28.505 6.360625 28.01 5.72125 27.5 5.0625 C24.49948928 2.21188497 24.49948928 2.21188497 17 2 C17.33 10.25 17.66 18.5 18 27 C19.32 27.33 20.64 27.66 22 28 C22 28.66 22 29.32 22 30 C17.05 30 12.1 30 7 30 C7 29.34 7 28.68 7 28 C8.32 27.67 9.64 27.34 11 27 C11.33 18.75 11.66 10.5 12 2 C3.5840248 1.98649736 3.5840248 1.98649736 0.9375 5.0625 C0.628125 5.701875 0.31875 6.34125 0 7 C0 4.69 0 2.38 0 0 Z " fill="#FF646A" transform="translate(1419,1208)"/>
<path d="M0 0 C2.2421875 1.53515625 2.2421875 1.53515625 4 4 C4.2911521 6.73682971 4.38322418 9.03940039 4.25 11.75 C4.23195313 12.44738281 4.21390625 13.14476562 4.1953125 13.86328125 C4.14838554 15.57611539 4.07664605 17.28823824 4 19 C5.32 19.33 6.64 19.66 8 20 C7 21 7 21 4.0625 21.1875 C1 21 1 21 -1 19 C-1.66 19.66 -2.32 20.32 -3 21 C-6.5 21.25 -6.5 21.25 -10 21 C-12 19 -12 19 -12.625 16.6875 C-11.85369391 13.37088381 -11.04665122 13.04339158 -8.25 11.25 C-5.53090597 9.65882646 -3.08621912 8.63948685 0 8 C-0.66 6.35 -1.32 4.7 -2 3 C-3.32 3 -4.64 3 -6 3 C-6.99 4.485 -6.99 4.485 -8 6 C-8.99 6 -9.98 6 -11 6 C-10.625 3.5625 -10.625 3.5625 -10 1 C-6.87057535 -0.56471233 -3.38917777 -0.69701958 0 0 Z " fill="#FF676E" transform="translate(605,1217)"/>
<path d="M0 0 C2.22265625 1.04296875 2.22265625 1.04296875 4 3 C4.37867638 5.63312179 4.56000987 7.93042829 4.5625 10.5625 C4.57920836 13.09978437 4.72095457 15.46509252 5 18 C5.99 18.66 6.98 19.32 8 20 C7 21 7 21 3.9375 21.0625 C2.968125 21.041875 1.99875 21.02125 1 21 C1 20.01 1 19.02 1 18 C0.484375 18.495 -0.03125 18.99 -0.5625 19.5 C-3.85639847 21.52701444 -6.20122401 21.35173852 -10 21 C-10.66 20.34 -11.32 19.68 -12 19 C-11.90795153 15.50215827 -11.27749067 14.26978259 -8.75 11.8125 C-6.20277045 10.13364416 -3.87683772 8.98634436 -1 8 C-1 6.35 -1 4.7 -1 3 C-3.41619823 2.74969023 -3.41619823 2.74969023 -6 3 C-6.99 4.485 -6.99 4.485 -8 6 C-8.99 5.67 -9.98 5.34 -11 5 C-10.625 3.0625 -10.625 3.0625 -10 1 C-6.86967764 -0.56516118 -3.40926916 -0.540337 0 0 Z " fill="#FF6067" transform="translate(1310,1217)"/>
<path d="M0 0 C2.9375 2.25 2.9375 2.25 5 5 C5 6.32 5 7.64 5 9 C0.38 9 -4.24 9 -9 9 C-8.690625 10.299375 -8.38125 11.59875 -8.0625 12.9375 C-7.80146484 14.03384766 -7.80146484 14.03384766 -7.53515625 15.15234375 C-7.16112431 16.99969898 -7.16112431 16.99969898 -6 18 C-2.33655389 18.13568319 0.50615721 18.16461426 4 17 C4 17.66 4 18.32 4 19 C-0.00254616 21.66836411 -3.29313299 21.8340238 -8 21 C-10.75569447 18.81840855 -12.43588747 17.12822506 -14 14 C-14.67660495 8.13609041 -14.67660495 8.13609041 -12.953125 5.2421875 C-8.89647758 0.30262271 -6.35576123 -0.6463486 0 0 Z " fill="#FF6C72" transform="translate(651,1217)"/>
<path d="M0 0 C2.9375 2.25 2.9375 2.25 5 5 C5 6.32 5 7.64 5 9 C0.38 9 -4.24 9 -9 9 C-8.690625 10.299375 -8.38125 11.59875 -8.0625 12.9375 C-7.80146484 14.03384766 -7.80146484 14.03384766 -7.53515625 15.15234375 C-7.16112431 16.99969898 -7.16112431 16.99969898 -6 18 C-3.66706666 18.04320247 -1.3329866 18.04022391 1 18 C1.99 18 2.98 18 4 18 C2.36730848 19.96026975 1.44978435 20.9065055 -1.0859375 21.43359375 C-5.16104293 21.44054785 -7.43366295 21.34216197 -11 19.1875 C-13.57248533 16.37384417 -13.94866316 14.45347543 -14.375 10.6875 C-13.87765929 5.79698299 -12.42915508 4.42915508 -9 1 C-5.86128812 -0.56935594 -3.46144178 -0.35201103 0 0 Z " fill="#FF656B" transform="translate(1067,1217)"/>
<path d="M0 0 C2.9375 2.25 2.9375 2.25 5 5 C5 6.32 5 7.64 5 9 C0.38 9 -4.24 9 -9 9 C-8.67039784 14.01535052 -8.67039784 14.01535052 -6 18 C-2.54171978 18.16669318 -2.54171978 18.16669318 1 18 C1.99 18 2.98 18 4 18 C2.36730848 19.96026975 1.44978435 20.9065055 -1.0859375 21.43359375 C-5.16104293 21.44054785 -7.43366295 21.34216197 -11 19.1875 C-13.57248533 16.37384417 -13.94866316 14.45347543 -14.375 10.6875 C-13.87765929 5.79698299 -12.42915508 4.42915508 -9 1 C-5.86128812 -0.56935594 -3.46144178 -0.35201103 0 0 Z " fill="#FF646B" transform="translate(861,1217)"/>
<path d="M0 0 C0.33 0.99 0.66 1.98 1 3 C1.804375 2.2575 1.804375 2.2575 2.625 1.5 C5.70110743 -0.44280469 7.41889189 -0.52224493 11 0 C13.1484375 1.55078125 13.1484375 1.55078125 15 4 C15.39783971 6.65803049 15.60464674 8.96889906 15.625 11.625 C15.44096871 16.79051714 15.44096871 16.79051714 18 21 C14.7 21 11.4 21 8 21 C8.66 20.34 9.32 19.68 10 19 C10.28229785 15.71130055 10.28229785 15.71130055 10.1875 12 C10.18105469 10.741875 10.17460938 9.48375 10.16796875 8.1875 C10.2183004 5.10366209 10.2183004 5.10366209 9 3 C6.58354218 2.83312552 6.58354218 2.83312552 4 3 C1.14206684 5.85793316 1.59200059 8.14665584 1.375 12.125 C1.30023437 13.40632813 1.22546875 14.68765625 1.1484375 16.0078125 C1.09945313 16.99523438 1.05046875 17.98265625 1 19 C1.99 19.33 2.98 19.66 4 20 C4 20.33 4 20.66 4 21 C0.37 21 -3.26 21 -7 21 C-6.67 20.34 -6.34 19.68 -6 19 C-5.01 19 -4.02 19 -3 19 C-3.33 14.05 -3.66 9.1 -4 4 C-4.99 3.67 -5.98 3.34 -7 3 C-7 2.34 -7 1.68 -7 1 C-4.50935112 0.31292445 -2.62113708 0 0 0 Z " fill="#FF6C72" transform="translate(1326,1217)"/>
<path d="M0 0 C2.9375 2.25 2.9375 2.25 5 5 C5 6.32 5 7.64 5 9 C0.05 9 -4.9 9 -10 9 C-9.525625 10.299375 -9.05125 11.59875 -8.5625 12.9375 C-8.16224609 14.03384766 -8.16224609 14.03384766 -7.75390625 15.15234375 C-7.14613052 16.98305678 -7.14613052 16.98305678 -6 18 C-3.66706666 18.04320247 -1.3329866 18.04022391 1 18 C1.99 18 2.98 18 4 18 C2.2841869 20.12085751 1.38482316 20.92868886 -1.33984375 21.43359375 C-8.37203767 21.44416848 -8.37203767 21.44416848 -11.5625 19.1875 C-14.20893393 15.16031793 -14.4812172 11.73196914 -14 7 C-10.42128325 1.00431409 -6.89851638 -0.70154404 0 0 Z " fill="#FF6269" transform="translate(735,1217)"/>
<path d="M0 0 C0.66 0.99 1.32 1.98 2 3 C2.53625 2.505 3.0725 2.01 3.625 1.5 C6.68245535 -0.43102443 8.438173 -0.44522837 12 0 C14.1484375 1.01953125 14.1484375 1.01953125 16 3 C16.40509648 5.79751408 16.60520099 8.26341553 16.625 11.0625 C16.39188716 16.52744331 16.39188716 16.52744331 19 21 C15.7 21 12.4 21 9 21 C9.66 20.34 10.32 19.68 11 19 C11.14497985 16.41935871 11.18677545 13.95056116 11.125 11.375 C11.11597656 10.66859375 11.10695313 9.9621875 11.09765625 9.234375 C11.07407603 7.48943902 11.03820461 5.74467705 11 4 C8.65466049 3.23043864 8.65466049 3.23043864 6 3 C4.05235574 3.92519245 4.05235574 3.92519245 3 6 C2.56068531 9.13051555 2.56068531 9.13051555 2.6875 12.5625 C2.69136719 13.71878906 2.69523438 14.87507813 2.69921875 16.06640625 C2.70054123 19.12140629 2.70054123 19.12140629 5 21 C1.7 21 -1.6 21 -5 21 C-4.34 20.34 -3.68 19.68 -3 19 C-2.85502015 16.41935871 -2.81322455 13.95056116 -2.875 11.375 C-2.88853516 10.31539062 -2.88853516 10.31539062 -2.90234375 9.234375 C-2.92592397 7.48943902 -2.96179539 5.74467705 -3 4 C-3.66 3.67 -4.32 3.34 -5 3 C-5 2.34 -5 1.68 -5 1 C-3.35 0.67 -1.7 0.34 0 0 Z " fill="#FF6269" transform="translate(874,1217)"/>
<path d="M0 0 C2.875 1.6875 2.875 1.6875 5 4 C5 5.65 5 7.3 5 9 C0.38 9 -4.24 9 -9 9 C-8.34 11.97 -7.68 14.94 -7 18 C-0.91591528 18.19814261 -0.91591528 18.19814261 5 17 C3.24382798 19.44336977 1.87982422 20.83210694 -1.12890625 21.40625 C-5.08710347 21.56275203 -7.26741582 21.54943814 -10.5 19.125 C-13.47845522 14.90552177 -13.80648723 11.07560985 -13 6 C-9.09478849 1.06710125 -6.26592315 -0.61430619 0 0 Z " fill="#FF686E" transform="translate(1395,1217)"/>
<path d="M0 0 C3.0625 2 3.0625 2 5 5 C5.94884067 9.67642901 5.66524378 12.93560995 3.125 17 C-0.40814057 20.32530877 -3.04661263 20.33074386 -7.73828125 20.29296875 C-11.0542278 19.86344199 -12.74987627 18.39075646 -15 16 C-16.77110054 12.45779891 -16.76559773 8.84728943 -16 5 C-12.09701149 -1.14200699 -6.65545583 -2.32629952 0 0 Z M-10.3125 3.0625 C-12.42080254 6.73250813 -12.52224707 8.82202347 -12 13 C-11.13353917 16.00155751 -11.13353917 16.00155751 -9 18 C-5.5 18.75 -5.5 18.75 -2 18 C0.13575439 16.59869315 0.13575439 16.59869315 1 14 C1.52225812 9.29967693 1.63130237 7.12231532 -0.6875 3 C-2.83049929 0.84263599 -2.83049929 0.84263599 -5.5 0.375 C-8.18049365 0.83938002 -8.18049365 0.83938002 -10.3125 3.0625 Z " fill="#FF6369" transform="translate(998,1218)"/>
<path d="M0 0 C0.66 0.33 1.32 0.66 2 1 C2 1.99 2 2.98 2 4 C1.36191406 3.91621094 0.72382812 3.83242187 0.06640625 3.74609375 C-0.75988281 3.64425781 -1.58617187 3.54242187 -2.4375 3.4375 C-3.26121094 3.33308594 -4.08492187 3.22867187 -4.93359375 3.12109375 C-5.61550781 3.08113281 -6.29742188 3.04117187 -7 3 C-8.49743119 4.49743119 -8.33202693 5.98824239 -8.5625 8.0625 C-8.706875 9.361875 -8.85125 10.66125 -9 12 C-7.02 12 -5.04 12 -3 12 C-3 12.66 -3 13.32 -3 14 C-4.98 14 -6.96 14 -9 14 C-8.91299202 16.43922361 -8.80613998 18.87478414 -8.6875 21.3125 C-8.66494141 22.00279297 -8.64238281 22.69308594 -8.61914062 23.40429688 C-8.38725874 27.76789236 -8.22799347 28.77200653 -5 32 C-8.63 32 -12.26 32 -16 32 C-15.34 31.34 -14.68 30.68 -14 30 C-13.6936141 27.26565038 -13.4886664 24.61720179 -13.375 21.875 C-13.33632813 21.12089844 -13.29765625 20.36679688 -13.2578125 19.58984375 C-13.16348969 17.72696816 -13.08065338 15.86351745 -13 14 C-14.32 14 -15.64 14 -17 14 C-17 13.34 -17 12.68 -17 12 C-15.35 12 -13.7 12 -12 12 C-12.0825 10.7625 -12.165 9.525 -12.25 8.25 C-12.2286346 5.23747924 -12.0939071 4.15651183 -10.5 1.5 C-6.81370046 -0.71177972 -4.26823808 -0.34421275 0 0 Z " fill="#FF656B" transform="translate(966,1206)"/>
<path d="M0 0 C5.61 0 11.22 0 17 0 C15.60820733 2.78358534 14.39906839 4.9859053 12.6171875 7.453125 C12.17246094 8.071875 11.72773437 8.690625 11.26953125 9.328125 C10.80933594 9.96234375 10.34914063 10.5965625 9.875 11.25 C9.40707031 11.8996875 8.93914062 12.549375 8.45703125 13.21875 C7.30725718 14.81435483 6.15397434 16.40743025 5 18 C6.43655854 18.08131463 7.8744483 18.13933559 9.3125 18.1875 C10.11300781 18.22230469 10.91351562 18.25710938 11.73828125 18.29296875 C14.47851584 17.93801608 15.29171079 17.10633718 17 15 C17 16.98 17 18.96 17 21 C10.73 21 4.46 21 -2 21 C0.64817951 16.36568585 3.11454385 12.2953658 6.25 8.0625 C7.30960938 6.62583984 7.30960938 6.62583984 8.390625 5.16015625 C8.92171875 4.44730469 9.4528125 3.73445313 10 3 C5.20691658 2.53477707 5.20691658 2.53477707 1.0625 4.5 C0.711875 4.995 0.36125 5.49 0 6 C0 4.02 0 2.04 0 0 Z " fill="#FF6C72" transform="translate(1361,1217)"/>
<path d="M0 0 C0.99 0.33 1.98 0.66 3 1 C5.00875442 0.72428861 7.01178687 0.39764263 9 0 C9.33 1.32 9.66 2.64 10 4 C7.03 3.505 7.03 3.505 4 3 C4.12375 4.8871875 4.12375 4.8871875 4.25 6.8125 C4.23622169 10.69109472 4.23622169 10.69109472 2.375 13.125 C0 14 0 14 -3.125 13.6875 C-6 12 -6 12 -6.828125 10.07421875 C-7.32574255 8.07308531 -7.67165058 6.03576642 -8 4 C-8.66 5.65 -9.32 7.3 -10 9 C-10.33 9 -10.66 9 -11 9 C-11.35430394 5.81126451 -11.25953249 4.38410809 -9.4375 1.6875 C-6.14189944 -0.59406962 -3.93045581 -0.35731416 0 0 Z " fill="#FF6269" transform="translate(1287,1217)"/>
<path d="M0 0 C3.63 0 7.26 0 11 0 C11 0.66 11 1.32 11 2 C10.01 2 9.02 2 8 2 C8.28875 2.75925781 8.5775 3.51851562 8.875 4.30078125 C9.431875 5.79158203 9.431875 5.79158203 10 7.3125 C10.37125 8.29863281 10.7425 9.28476563 11.125 10.30078125 C12 13 12 13 12 16 C12.66 16 13.32 16 14 16 C14.103125 15.360625 14.20625 14.72125 14.3125 14.0625 C15.23903073 9.93522674 16.61660629 5.99357051 18 2 C17.01 2 16.02 2 15 2 C15 1.34 15 0.68 15 0 C17.64 0 20.28 0 23 0 C22.70561035 0.57524414 22.4112207 1.15048828 22.10791016 1.74316406 C21.07785822 3.8414012 20.15821869 5.94657654 19.2734375 8.109375 C18.9640625 8.86347656 18.6546875 9.61757812 18.3359375 10.39453125 C18.01882813 11.17183594 17.70171875 11.94914062 17.375 12.75 C17.05015625 13.54277344 16.7253125 14.33554688 16.390625 15.15234375 C15.59237958 17.10100169 14.79600516 19.05042587 14 21 C12.68 21 11.36 21 10 21 C8.82905995 18.2100561 7.66309073 15.41821403 6.5 12.625 C5.99919922 11.43390625 5.99919922 11.43390625 5.48828125 10.21875 C5.17246094 9.45820312 4.85664062 8.69765625 4.53125 7.9140625 C4.23798828 7.2123291 3.94472656 6.5105957 3.64257812 5.78759766 C3 4 3 4 3 2 C2.01 2 1.02 2 0 2 C0 1.34 0 0.68 0 0 Z " fill="#FF6C72" transform="translate(696,1217)"/>
<path d="M0 0 C3.96 0 7.92 0 12 0 C12 0.66 12 1.32 12 2 C11.01 2.33 10.02 2.66 9 3 C9 10.92 9 18.84 9 27 C9.99 27.33 10.98 27.66 12 28 C12 28.66 12 29.32 12 30 C7.71 30 3.42 30 -1 30 C0 28 0 28 3 27 C3 19.08 3 11.16 3 3 C2.01 2.67 1.02 2.34 0 2 C0 1.34 0 0.68 0 0 Z " fill="#FF6268" transform="translate(1404,1208)"/>
<path d="M0 0 C3.63 0 7.26 0 11 0 C11 0.66 11 1.32 11 2 C10.01 2 9.02 2 8 2 C8.28875 2.75925781 8.5775 3.51851562 8.875 4.30078125 C9.431875 5.79158203 9.431875 5.79158203 10 7.3125 C10.37125 8.29863281 10.7425 9.28476563 11.125 10.30078125 C12 13 12 13 12 16 C12.66 16 13.32 16 14 16 C14.103125 15.360625 14.20625 14.72125 14.3125 14.0625 C15.23903073 9.93522674 16.61660629 5.99357051 18 2 C17.01 2 16.02 2 15 2 C15 1.34 15 0.68 15 0 C17.64 0 20.28 0 23 0 C22.70561035 0.57524414 22.4112207 1.15048828 22.10791016 1.74316406 C21.07785822 3.8414012 20.15821869 5.94657654 19.2734375 8.109375 C18.9640625 8.86347656 18.6546875 9.61757812 18.3359375 10.39453125 C18.01882813 11.17183594 17.70171875 11.94914062 17.375 12.75 C17.05015625 13.54277344 16.7253125 14.33554688 16.390625 15.15234375 C15.59237958 17.10100169 14.79600516 19.05042587 14 21 C12.12011719 20.72045898 12.12011719 20.72045898 10 20 C8.90332031 18.44946289 8.90332031 18.44946289 8.078125 16.47265625 C7.77519531 15.76302734 7.47226562 15.05339844 7.16015625 14.32226562 C6.85980469 13.57654297 6.55945313 12.83082031 6.25 12.0625 C5.93417969 11.32064453 5.61835937 10.57878906 5.29296875 9.81445312 C3 4.34011431 3 4.34011431 3 2 C2.01 2 1.02 2 0 2 C0 1.34 0 0.68 0 0 Z " fill="#FF6B71" transform="translate(822,1217)"/>
<path d="M0 0 C0.66 0.33 1.32 0.66 2 1 C2 1.99 2 2.98 2 4 C1.36191406 3.91621094 0.72382812 3.83242187 0.06640625 3.74609375 C-0.75988281 3.64425781 -1.58617187 3.54242187 -2.4375 3.4375 C-3.26121094 3.33308594 -4.08492187 3.22867187 -4.93359375 3.12109375 C-5.61550781 3.08113281 -6.29742188 3.04117187 -7 3 C-8.49743119 4.49743119 -8.33202693 5.98824239 -8.5625 8.0625 C-8.706875 9.361875 -8.85125 10.66125 -9 12 C-7.02 12 -5.04 12 -3 12 C-3 12.66 -3 13.32 -3 14 C-4.98 14 -6.96 14 -9 14 C-8.91299202 16.43922361 -8.80613998 18.87478414 -8.6875 21.3125 C-8.66494141 22.00279297 -8.64238281 22.69308594 -8.61914062 23.40429688 C-8.38725874 27.76789236 -8.22799347 28.77200653 -5 32 C-8.63 32 -12.26 32 -16 32 C-15.01 31.01 -14.02 30.02 -13 29 C-12.62355152 26.37060795 -12.39866913 23.94927528 -12.3125 21.3125 C-12.27833984 20.61060547 -12.24417969 19.90871094 -12.20898438 19.18554688 C-12.12670053 17.45758613 -12.0616676 15.72881928 -12 14 C-13.65 14 -15.3 14 -17 14 C-17 13.34 -17 12.68 -17 12 C-15.35 12 -13.7 12 -12 12 C-12.0825 10.7625 -12.165 9.525 -12.25 8.25 C-12.2286346 5.23747924 -12.0939071 4.15651183 -10.5 1.5 C-6.81370046 -0.71177972 -4.26823808 -0.34421275 0 0 Z " fill="#FF5B62" transform="translate(982,1206)"/>
<path d="M0 0 C0.01981934 0.89831543 0.03963867 1.79663086 0.06005859 2.72216797 C0.13809261 6.05090078 0.22478114 9.37917256 0.31738281 12.70751953 C0.35569674 14.1488374 0.39054543 15.59025168 0.421875 17.03173828 C0.46747446 19.10223886 0.52547444 21.17207433 0.5859375 23.2421875 C0.6173584 24.4885498 0.6487793 25.73491211 0.68115234 27.01904297 C0.69682309 30.11541776 0.69682309 30.11541776 3 32 C-0.63 32 -4.26 32 -8 32 C-7.67 31.34 -7.34 30.68 -7 30 C-6.01 30 -5.02 30 -4 30 C-4 21.09 -4 12.18 -4 3 C-5.32 3 -6.64 3 -8 3 C-8 2.34 -8 1.68 -8 1 C-5.07175348 0.02391783 -3.04386724 -0.08226668 0 0 Z " fill="#FF686E" transform="translate(1047,1206)"/>
<path d="M0 0 C0.80824219 0.11988281 1.61648438 0.23976563 2.44921875 0.36328125 C3.06410156 0.47027344 3.67898438 0.57726563 4.3125 0.6875 C4.3125 2.3375 4.3125 3.9875 4.3125 5.6875 C3.6525 5.6875 2.9925 5.6875 2.3125 5.6875 C1.6525 4.6975 0.9925 3.7075 0.3125 2.6875 C-1.0075 2.6875 -2.3275 2.6875 -3.6875 2.6875 C-3.6875 3.6775 -3.6875 4.6675 -3.6875 5.6875 C-1.95681145 7.34099229 -1.95681145 7.34099229 0.25 8.8125 C0.98089844 9.33070312 1.71179687 9.84890625 2.46484375 10.3828125 C3.07457031 10.81335937 3.68429687 11.24390625 4.3125 11.6875 C5.3125 12.6875 5.3125 12.6875 5.5 15.625 C5.3125 18.6875 5.3125 18.6875 3.3125 20.6875 C0.7109375 20.8828125 0.7109375 20.8828125 -2.3125 20.8125 C-3.81683594 20.78542969 -3.81683594 20.78542969 -5.3515625 20.7578125 C-6.12242188 20.73460937 -6.89328125 20.71140625 -7.6875 20.6875 C-7.6875 18.3775 -7.6875 16.0675 -7.6875 13.6875 C-6.3675 15.3375 -5.0475 16.9875 -3.6875 18.6875 C-2.0375 18.3575 -0.3875 18.0275 1.3125 17.6875 C0.15874136 14.4569758 -0.7090299 13.67475782 -3.75 11.875 C-6.6875 9.6875 -6.6875 9.6875 -7.75 6.125 C-7.6875 2.6875 -7.6875 2.6875 -6.4765625 0.953125 C-4.08341145 -0.73984648 -2.85355507 -0.45491458 0 0 Z " fill="#FF636A" transform="translate(1083.6875,1217.3125)"/>
<path d="M0 0 C0 1.65 0 3.3 0 5 C-0.61875 4.2575 -0.61875 4.2575 -1.25 3.5 C-3.12202338 1.56613908 -3.12202338 1.56613908 -7 2 C-6.62669176 4.72574271 -6.20805399 5.80822085 -4.15234375 7.703125 C-3.42144531 8.21359375 -2.69054688 8.7240625 -1.9375 9.25 C-1.20402344 9.77078125 -0.47054688 10.2915625 0.28515625 10.828125 C1.13400391 11.40820312 1.13400391 11.40820312 2 12 C1.74438677 14.3431213 1.40729228 16.67843403 1 19 C-1.52475462 20.26237731 -3.31200466 20.09856404 -6.125 20.0625 C-7.03507812 20.05347656 -7.94515625 20.04445313 -8.8828125 20.03515625 C-9.93082031 20.01775391 -9.93082031 20.01775391 -11 20 C-11 18.02 -11 16.04 -11 14 C-10.4225 14.66 -9.845 15.32 -9.25 16 C-7.00346023 18.44290923 -7.00346023 18.44290923 -3 18 C-3.03780298 15.62766389 -3.03780298 15.62766389 -4 13 C-6.92321965 10.71760829 -6.92321965 10.71760829 -10 9 C-11 8 -11 8 -11.25 5.125 C-11 2 -11 2 -10 0.0625 C-6.65791742 -1.71298137 -3.65183129 -0.65852695 0 0 Z " fill="#FF656B" transform="translate(1105,1218)"/>
<path d="M0 0 C2.75 0.25 2.75 0.25 5 1 C5 1.99 5 2.98 5 4 C3.88625 4.0825 2.7725 4.165 1.625 4.25 C-1.99025801 4.56294972 -1.99025801 4.56294972 -3.1875 6.71875 C-4.09856154 9.27673047 -4.4114778 11.54538544 -4.625 14.25 C-4.69976563 15.14203125 -4.77453125 16.0340625 -4.8515625 16.953125 C-4.90054687 17.62859375 -4.94953125 18.3040625 -5 19 C-4.01 19 -3.02 19 -2 19 C-2 19.66 -2 20.32 -2 21 C-5.3 21 -8.6 21 -12 21 C-11.34 20.34 -10.68 19.68 -10 19 C-9.80150929 16.45464859 -9.72148225 14.04283241 -9.75 11.5 C-9.74226563 10.81035156 -9.73453125 10.12070313 -9.7265625 9.41015625 C-9.6238695 5.24785614 -9.6238695 5.24785614 -12 2 C-11 1 -11 1 -7.9375 0.9375 C-6.4834375 0.9684375 -6.4834375 0.9684375 -5 1 C-4.67 1.99 -4.34 2.98 -4 4 C-3.443125 3.319375 -2.88625 2.63875 -2.3125 1.9375 C-1.1678125 0.9784375 -1.1678125 0.9784375 0 0 Z " fill="#FF666C" transform="translate(1268,1217)"/>
<path d="M0 0 C1.98 0 3.96 0 6 0 C6 4.62 6 9.24 6 14 C6.66 14 7.32 14 8 14 C7.97679687 15.05960938 7.95359375 16.11921875 7.9296875 17.2109375 C7.91093056 18.5989513 7.89273028 19.9869727 7.875 21.375 C7.85824219 22.07367187 7.84148437 22.77234375 7.82421875 23.4921875 C7.80655733 25.32897486 7.89696739 27.16601963 8 29 C8.66 29.66 9.32 30.32 10 31 C6.7 31 3.4 31 0 31 C0.66 30.34 1.32 29.68 2 29 C2.37239227 26.18597317 2.37239227 26.18597317 2.4140625 22.8984375 C2.45273438 21.68671875 2.49140625 20.475 2.53125 19.2265625 C2.5621875 17.95554687 2.593125 16.68453125 2.625 15.375 C2.66367188 14.09625 2.70234375 12.8175 2.7421875 11.5 C2.83671049 8.33347983 2.92226357 5.1669696 3 2 C2.01 2 1.02 2 0 2 C0 1.34 0 0.68 0 0 Z " fill="#FF5F65" transform="translate(1181,1207)"/>
<path d="M0 0 C1.11375 0.3403125 1.11375 0.3403125 2.25 0.6875 C1.92 1.6775 1.59 2.6675 1.25 3.6875 C-0.73 3.6875 -2.71 3.6875 -4.75 3.6875 C-6.71661413 6.98079826 -7.02055005 9.50046573 -7 13.3125 C-7.00515625 14.27414062 -7.0103125 15.23578125 -7.015625 16.2265625 C-6.99112088 18.86447348 -6.99112088 18.86447348 -4.75 20.6875 C-8.05 20.6875 -11.35 20.6875 -14.75 20.6875 C-14.09 20.0275 -13.43 19.3675 -12.75 18.6875 C-12.55150929 16.14214859 -12.47148225 13.73033241 -12.5 11.1875 C-12.49226562 10.49785156 -12.48453125 9.80820313 -12.4765625 9.09765625 C-12.3738695 4.93535614 -12.3738695 4.93535614 -14.75 1.6875 C-13.75 0.6875 -13.75 0.6875 -10.6875 0.625 C-9.2334375 0.6559375 -9.2334375 0.6559375 -7.75 0.6875 C-7.42 1.3475 -7.09 2.0075 -6.75 2.6875 C-6.193125 2.171875 -5.63625 1.65625 -5.0625 1.125 C-2.75 -0.3125 -2.75 -0.3125 0 0 Z " fill="#FF5E65" transform="translate(1021.75,1217.3125)"/>
<path d="M0 0 C0 1.65 0 3.3 0 5 C1.65 5 3.3 5 5 5 C5 5.66 5 6.32 5 7 C3.35 7 1.7 7 0 7 C0 12.28 0 17.56 0 23 C1.98 22.67 3.96 22.34 6 22 C5.67 22.99 5.34 23.98 5 25 C-1.15234375 25.09765625 -1.15234375 25.09765625 -3 25 C-4 24 -4 24 -4.09765625 20.18359375 C-4.09098089 18.60153318 -4.07901875 17.01948841 -4.0625 15.4375 C-4.05798828 14.63119141 -4.05347656 13.82488281 -4.04882812 12.99414062 C-4.03700518 10.99606244 -4.01906914 8.99802217 -4 7 C-4.99 7 -5.98 7 -7 7 C-7 5 -7 5 -4.625 2.375 C-2 0 -2 0 0 0 Z " fill="#FF6C72" transform="translate(1032,1213)"/>
<path d="M0 0 C0 1.65 0 3.3 0 5 C1.65 5 3.3 5 5 5 C5 5.66 5 6.32 5 7 C3.35 7 1.7 7 0 7 C0.33 11.95 0.66 16.9 1 22 C2.65 22 4.3 22 6 22 C5.67 22.99 5.34 23.98 5 25 C1.625 25.125 1.625 25.125 -2 25 C-4 23 -4 23 -4.1953125 19.3046875 C-4.182009 17.82799892 -4.15814835 16.35137642 -4.125 14.875 C-4.11146484 13.74384766 -4.11146484 13.74384766 -4.09765625 12.58984375 C-4.0740687 10.72642746 -4.03819719 8.86317407 -4 7 C-4.66 7 -5.32 7 -6 7 C-2.86206897 0 -2.86206897 0 0 0 Z " fill="#FF6369" transform="translate(1173,1213)"/>
<path d="M0 0 C0 1.65 0 3.3 0 5 C1.65 5 3.3 5 5 5 C5 5.66 5 6.32 5 7 C3.35 7 1.7 7 0 7 C0.33 11.95 0.66 16.9 1 22 C2.65 22 4.3 22 6 22 C5.67 22.99 5.34 23.98 5 25 C1.625 25.125 1.625 25.125 -2 25 C-4 23 -4 23 -4.1953125 19.3046875 C-4.182009 17.82799892 -4.15814835 16.35137642 -4.125 14.875 C-4.11146484 13.74384766 -4.11146484 13.74384766 -4.09765625 12.58984375 C-4.0740687 10.72642746 -4.03819719 8.86317407 -4 7 C-4.66 7 -5.32 7 -6 7 C-2.86206897 0 -2.86206897 0 0 0 Z " fill="#FF6269" transform="translate(902,1213)"/>
<path d="M0 0 C0.27615058 1.59987236 0.52007625 3.205333 0.75 4.8125 C0.88921875 5.70582031 1.0284375 6.59914063 1.171875 7.51953125 C1 10 1 10 -0.7578125 11.8046875 C-3.94471992 13.50363117 -6.4508552 13.32862452 -10 13 C-10.66 12.34 -11.32 11.68 -12 11 C-11.90795153 7.50215827 -11.27749067 6.26978259 -8.75 3.8125 C-2.96551724 0 -2.96551724 0 0 0 Z " fill="#FF666D" transform="translate(1310,1225)"/>
<path d="M0 0 C0.01981934 0.56509277 0.03963867 1.13018555 0.06005859 1.71240234 C0.15518236 4.26707997 0.26491058 6.82092541 0.375 9.375 C0.4059375 10.26445313 0.436875 11.15390625 0.46875 12.0703125 C0.50742188 12.92109375 0.54609375 13.771875 0.5859375 14.6484375 C0.6173584 15.43395996 0.6487793 16.21948242 0.68115234 17.02880859 C0.8399465 19.23002939 0.8399465 19.23002939 3 21 C-0.63 21 -4.26 21 -8 21 C-7.01 20.01 -6.02 19.02 -5 18 C-4.63601382 14.56919882 -4.63601382 14.56919882 -4.8125 10.8125 C-4.83957031 9.54019531 -4.86664062 8.26789063 -4.89453125 6.95703125 C-4.92933594 5.98121094 -4.96414063 5.00539063 -5 4 C-5.99 3.67 -6.98 3.34 -8 3 C-8 2.34 -8 1.68 -8 1 C-5.10765685 0.17361624 -3.11257569 0 0 0 Z " fill="#FF666C" transform="translate(1354,1217)"/>
<path d="M0 0 C0.01981934 0.56509277 0.03963867 1.13018555 0.06005859 1.71240234 C0.15518236 4.26707997 0.26491058 6.82092541 0.375 9.375 C0.4059375 10.26445313 0.436875 11.15390625 0.46875 12.0703125 C0.50742188 12.92109375 0.54609375 13.771875 0.5859375 14.6484375 C0.6173584 15.43395996 0.6487793 16.21948242 0.68115234 17.02880859 C0.8399465 19.23002939 0.8399465 19.23002939 3 21 C-0.63 21 -4.26 21 -8 21 C-7.01 20.01 -6.02 19.02 -5 18 C-4.63601382 14.56919882 -4.63601382 14.56919882 -4.8125 10.8125 C-4.83957031 9.54019531 -4.86664062 8.26789063 -4.89453125 6.95703125 C-4.92933594 5.98121094 -4.96414063 5.00539063 -5 4 C-5.99 3.67 -6.98 3.34 -8 3 C-8 2.34 -8 1.68 -8 1 C-5.10765685 0.17361624 -3.11257569 0 0 0 Z " fill="#FF6369" transform="translate(1161,1217)"/>
<path d="M0 0 C3.40229552 -0.30929959 5.32741978 -0.47833322 8.1640625 1.5390625 C10.59966754 4.80380969 10.59492948 7.70079649 10.625 11.625 C10.44096871 16.79051714 10.44096871 16.79051714 13 21 C9.7 21 6.4 21 3 21 C3.66 20.34 4.32 19.68 5 19 C5.28229785 15.71130055 5.28229785 15.71130055 5.1875 12 C5.18105469 10.741875 5.17460938 9.48375 5.16796875 8.1875 C5.2183004 5.10366209 5.2183004 5.10366209 4 3 C1.47266765 2.34444881 1.47266765 2.34444881 -1 2 C-0.67 1.34 -0.34 0.68 0 0 Z " fill="#FF636A" transform="translate(1331,1217)"/>
<path d="M0 0 C0.94032105 5.28930592 1.02500665 10.27480719 0.83984375 15.64453125 C0.75374296 18.19208302 0.75374296 18.19208302 3 20 C-0.3 20 -3.6 20 -7 20 C-6.34 19.34 -5.68 18.68 -5 18 C-4.80150929 15.45464859 -4.72148225 13.04283241 -4.75 10.5 C-4.74226562 9.81035156 -4.73453125 9.12070313 -4.7265625 8.41015625 C-4.6238695 4.24785614 -4.6238695 4.24785614 -7 1 C-4 0 -4 0 0 0 Z " fill="#FF5D64" transform="translate(750,1218)"/>
<path d="M0 0 C4.41562483 -0.43290439 6.34721796 -0.50000327 9.9375 2.25 C12 5 12 5 12 9 C7.38 9 2.76 9 -2 9 C-1.67 7.02 -1.34 5.04 -1 3 C-0.34 2.67 0.32 2.34 1 2 C0.67 1.34 0.34 0.68 0 0 Z " fill="#FF767C" transform="translate(1060,1217)"/>
<path d="M0 0 C4.41562483 -0.43290439 6.34721796 -0.50000327 9.9375 2.25 C12 5 12 5 12 9 C7.38 9 2.76 9 -2 9 C-1.67 7.02 -1.34 5.04 -1 3 C-0.34 2.67 0.32 2.34 1 2 C0.67 1.34 0.34 0.68 0 0 Z " fill="#FF777C" transform="translate(854,1217)"/>
<path d="M0 0 C4.41562483 -0.43290439 6.34721796 -0.50000327 9.9375 2.25 C12 5 12 5 12 9 C7.38 9 2.76 9 -2 9 C-1.67 7.02 -1.34 5.04 -1 3 C-0.34 2.67 0.32 2.34 1 2 C0.67 1.34 0.34 0.68 0 0 Z " fill="#FF777D" transform="translate(728,1217)"/>
<path d="M0 0 C2.625 0.375 2.625 0.375 5 1 C5.1953125 7.0546875 5.1953125 7.0546875 5 9 C4.34 9.66 3.68 10.32 3 11 C0.9375 10.75 0.9375 10.75 -1 10 C-2.38125018 7.23749964 -2.19079306 5.05268901 -2 2 C-1.34 1.34 -0.68 0.68 0 0 Z " fill="#FFF3F3" transform="translate(1282,1219)"/>
<path d="M0 0 C7.59 0 15.18 0 23 0 C23 2.31 23 4.62 23 7 C22.34 7 21.68 7 21 7 C20.82726562 6.36578125 20.65453125 5.7315625 20.4765625 5.078125 C19.06831811 2.61289985 19.06831811 2.61289985 15.5234375 2.171875 C14.14265418 2.01255385 12.7595257 1.87261482 11.375 1.75 C10.66859375 1.67265625 9.9621875 1.5953125 9.234375 1.515625 C7.4912947 1.32718389 5.74579076 1.16141131 4 1 C3.67 1.66 3.34 2.32 3 3 C2.01 2.67 1.02 2.34 0 2 C0 1.34 0 0.68 0 0 Z " fill="#FF6E74" transform="translate(922,1208)"/>
<path d="M0 0 C7.59 0 15.18 0 23 0 C23 2.31 23 4.62 23 7 C22.34 7 21.68 7 21 7 C20.67 6.01 20.34 5.02 20 4 C17.76352369 2.88176185 16.35108471 2.80603939 13.8671875 2.68359375 C13.06152344 2.64169922 12.25585938 2.59980469 11.42578125 2.55664062 C10.58402344 2.51732422 9.74226562 2.47800781 8.875 2.4375 C8.02550781 2.39431641 7.17601562 2.35113281 6.30078125 2.30664062 C4.20071777 2.20045764 2.10038052 2.09971503 0 2 C0 1.34 0 0.68 0 0 Z " fill="#FF7278" transform="translate(797,1208)"/>
<path d="M0 0 C7.59 0 15.18 0 23 0 C23 2.31 23 4.62 23 7 C22.34 7 21.68 7 21 7 C20.67 6.01 20.34 5.02 20 4 C17.76352369 2.88176185 16.35108471 2.80603939 13.8671875 2.68359375 C13.06152344 2.64169922 12.25585938 2.59980469 11.42578125 2.55664062 C10.58402344 2.51732422 9.74226562 2.47800781 8.875 2.4375 C8.02550781 2.39431641 7.17601562 2.35113281 6.30078125 2.30664062 C4.20071777 2.20045764 2.10038052 2.09971503 0 2 C0 1.34 0 0.68 0 0 Z " fill="#FF7278" transform="translate(671,1208)"/>
<path d="M0 0 C-0.75 6.75 -0.75 6.75 -3 9 C-5.625 8.625 -5.625 8.625 -8 8 C-7.8125 5.6875 -7.8125 5.6875 -7 3 C-2.96551724 0 -2.96551724 0 0 0 Z " fill="#FFF4F4" transform="translate(605,1227)"/>
<path d="M0 0 C-0.75 6.75 -0.75 6.75 -3 9 C-5.625 8.625 -5.625 8.625 -8 8 C-7.8125 5.6875 -7.8125 5.6875 -7 3 C-2.96551724 0 -2.96551724 0 0 0 Z " fill="#FFF4F4" transform="translate(1310,1227)"/>
<path d="M0 0 C0.33 0 0.66 0 1 0 C1 3.63 1 7.26 1 11 C2.98 10.67 4.96 10.34 7 10 C7.33 9.01 7.66 8.02 8 7 C8.66 7 9.32 7 10 7 C10 10.63 10 14.26 10 18 C9.34 18 8.68 18 8 18 C7.67 17.01 7.34 16.02 7 15 C6.34 14.67 5.68 14.34 5 14 C5 13.34 5 12.68 5 12 C3.35 12 1.7 12 0 12 C0 8.04 0 4.08 0 0 Z " fill="#FF777D" transform="translate(804,1210)"/>
<path d="M0 0 C0.33 0 0.66 0 1 0 C1 3.63 1 7.26 1 11 C2.98 10.67 4.96 10.34 7 10 C7.33 9.01 7.66 8.02 8 7 C8.66 7 9.32 7 10 7 C10 10.63 10 14.26 10 18 C9.34 18 8.68 18 8 18 C7.67 17.01 7.34 16.02 7 15 C6.34 14.67 5.68 14.34 5 14 C5 13.34 5 12.68 5 12 C3.35 12 1.7 12 0 12 C0 8.04 0 4.08 0 0 Z " fill="#FF797E" transform="translate(678,1210)"/>
<path d="M0 0 C2.64 0 5.28 0 8 0 C8 0.66 8 1.32 8 2 C7.3503125 2.5878125 7.3503125 2.5878125 6.6875 3.1875 C4.24349901 5.8125381 3.3182894 8.67288866 2 12 C1.34 11.67 0.68 11.34 0 11 C0.66 8.03 1.32 5.06 2 2 C1.34 2 0.68 2 0 2 C0 1.34 0 0.68 0 0 Z " fill="#FF767C" transform="translate(1144,1217)"/>
<path d="M0 0 C3.35620271 1.38877354 5.07298728 2.91677965 7 6 C7 6.66 7 7.32 7 8 C5.1875 8.625 5.1875 8.625 3 9 C2.01 8.34 1.02 7.68 0 7 C-0.1875 3.375 -0.1875 3.375 0 0 Z " fill="#FFF0F0" transform="translate(621,1229)"/>
<path d="M0 0 C2.5625 0.1875 2.5625 0.1875 4.5625 2.1875 C4.5625 3.1775 4.5625 4.1675 4.5625 5.1875 C1.5925 5.1875 -1.3775 5.1875 -4.4375 5.1875 C-3.20220588 0.24632353 -3.20220588 0.24632353 0 0 Z " fill="#FFF4F4" transform="translate(1391.4375,1218.8125)"/>
<path d="M0 0 C0 1.32 0 2.64 0 4 C-2.97 4 -5.94 4 -9 4 C-8.67 2.68 -8.34 1.36 -8 0 C-5.13822943 -1.43088528 -3.06624227 -0.59991697 0 0 Z " fill="#FFF4F5" transform="translate(1067,1220)"/>
<path d="M0 0 C0 1.32 0 2.64 0 4 C-2.97 4 -5.94 4 -9 4 C-8.67 2.68 -8.34 1.36 -8 0 C-5.13822943 -1.43088528 -3.06624227 -0.59991697 0 0 Z " fill="#FFF5F5" transform="translate(861,1220)"/>
<path d="M0 0 C0 1.32 0 2.64 0 4 C-2.97 4 -5.94 4 -9 4 C-8.67 2.68 -8.34 1.36 -8 0 C-5.13822943 -1.43088528 -3.06624227 -0.59991697 0 0 Z " fill="#FFF5F5" transform="translate(735,1220)"/>
<path d="M0 0 C1.2065625 0.0309375 1.2065625 0.0309375 2.4375 0.0625 C2.7675 1.7125 3.0975 3.3625 3.4375 5.0625 C0.4675 5.0625 -2.5025 5.0625 -5.5625 5.0625 C-3.06867284 0.07484568 -3.06867284 0.07484568 0 0 Z " fill="#FFF4F4" transform="translate(647.5625,1218.9375)"/>
<path d="M0 0 C0.66 0 1.32 0 2 0 C1.45147443 5.34812435 -0.19377717 10.40360054 -3 15 C-3.99 15.33 -4.98 15.66 -6 16 C-4.25192871 10.53262809 -2.34205919 5.24175152 0 0 Z " fill="#FF6970" transform="translate(577,1214)"/>
<path d="M0 0 C0.70125 0.01417969 1.4025 0.02835938 2.125 0.04296875 C3.176875 0.05263672 3.176875 0.05263672 4.25 0.0625 C6.125 0.23046875 6.125 0.23046875 8.125 1.23046875 C8.125 2.22046875 8.125 3.21046875 8.125 4.23046875 C7.53332031 4.12347656 6.94164062 4.01648437 6.33203125 3.90625 C1.06736509 3.07946884 1.06736509 3.07946884 -3.9375 4.66796875 C-4.576875 5.18359375 -5.21625 5.69921875 -5.875 6.23046875 C-3.14802195 0.38694437 -3.14802195 0.38694437 0 0 Z " fill="#FF686E" transform="translate(975.875,1205.76953125)"/>
<path d="M0 0 C0.33 0 0.66 0 1 0 C1 2.64 1 5.28 1 8 C-3.29 7.67 -7.58 7.34 -12 7 C-12 6.67 -12 6.34 -12 6 C-11.30132813 5.90203125 -10.60265625 5.8040625 -9.8828125 5.703125 C-8.51769531 5.47882813 -8.51769531 5.47882813 -7.125 5.25 C-6.22007812 5.11078125 -5.31515625 4.9715625 -4.3828125 4.828125 C-1.83785757 4.22016157 -1.83785757 4.22016157 -0.6796875 1.921875 C-0.34324219 0.97054688 -0.34324219 0.97054688 0 0 Z " fill="#FF6C72" transform="translate(820,1230)"/>
<path d="M0 0 C0.33 0 0.66 0 1 0 C1 2.64 1 5.28 1 8 C-3.29 7.67 -7.58 7.34 -12 7 C-12 6.67 -12 6.34 -12 6 C-11.30132813 5.90203125 -10.60265625 5.8040625 -9.8828125 5.703125 C-8.51769531 5.47882813 -8.51769531 5.47882813 -7.125 5.25 C-6.22007812 5.11078125 -5.31515625 4.9715625 -4.3828125 4.828125 C-1.83785757 4.22016157 -1.83785757 4.22016157 -0.6796875 1.921875 C-0.34324219 0.97054688 -0.34324219 0.97054688 0 0 Z " fill="#FF6C72" transform="translate(694,1230)"/>
<path d="M0 0 C3.3 0 6.6 0 10 0 C10 0.66 10 1.32 10 2 C6.8364623 4.169283 3.5875213 5.66749209 0 7 C0.99 5.35 1.98 3.7 3 2 C2.01 2 1.02 2 0 2 C0 1.34 0 0.68 0 0 Z " fill="#FF767C" transform="translate(625,1217)"/>
<path d="M0 0 C1.9375 0.6875 1.9375 0.6875 4 2 C4.33 3.65 4.66 5.3 5 7 C0.71 7 -3.58 7 -8 7 C-8 6.67 -8 6.34 -8 6 C-5.03 6 -2.06 6 1 6 C0.67 4.02 0.34 2.04 0 0 Z " fill="#FF5B62" transform="translate(1395,1218)"/>
<path d="M0 0 C0.33 0 0.66 0 1 0 C1.16435547 0.93972656 1.16435547 0.93972656 1.33203125 1.8984375 C1.49058594 2.71570312 1.64914062 3.53296875 1.8125 4.375 C1.96332031 5.18710938 2.11414062 5.99921875 2.26953125 6.8359375 C2.87544942 9.35820641 2.87544942 9.35820641 6 11 C3.25913944 11.22223194 1.56036279 11.34781139 -0.8125 9.875 C-2.52849028 7.16554166 -2.333728 5.13704316 -2 2 C-1.34 1.34 -0.68 0.68 0 0 Z " fill="#FF5B61" transform="translate(1279,1220)"/>
<path d="M0 0 C0.66 0 1.32 0 2 0 C2 3.63 2 7.26 2 11 C1.34 11 0.68 11 0 11 C-0.33 10.01 -0.66 9.02 -1 8 C-1.66 7.67 -2.32 7.34 -3 7 C-3 6.01 -3 5.02 -3 4 C-2.34 3.67 -1.68 3.34 -1 3 C-0.67 2.01 -0.34 1.02 0 0 Z " fill="#FF6E74" transform="translate(937,1217)"/>
<path d="M0 0 C-2 2 -2 2 -4 2.4375 C-6.38640738 2.87458708 -6.38640738 2.87458708 -8 6 C-8.99 6 -9.98 6 -11 6 C-10.625 3.5625 -10.625 3.5625 -10 1 C-6.78548731 -0.60725635 -3.56387464 -0.05748185 0 0 Z " fill="#FF7379" transform="translate(605,1217)"/>
<path d="M0 0 C-2 2 -2 2 -4 2.4375 C-6.38640738 2.87458708 -6.38640738 2.87458708 -8 6 C-8.99 5.67 -9.98 5.34 -11 5 C-10.625 3.0625 -10.625 3.0625 -10 1 C-6.78548731 -0.60725635 -3.56387464 -0.05748185 0 0 Z " fill="#FF7379" transform="translate(1310,1217)"/>
<path d="M0 0 C0.33 0 0.66 0 1 0 C1.12375 0.804375 1.2475 1.60875 1.375 2.4375 C1.684375 3.7059375 1.684375 3.7059375 2 5 C2.66 5.33 3.32 5.66 4 6 C4 6.66 4 7.32 4 8 C1.625 8.125 1.625 8.125 -1 8 C-1.66 7.34 -2.32 6.68 -3 6 C-2.63318342 3.06546739 -2.13562754 2.13562754 0 0 Z " fill="#FF5B62" transform="translate(596,1230)"/>
<path d="M0 0 C0.763125 0.20625 1.52625 0.4125 2.3125 0.625 C2.3125 1.615 2.3125 2.605 2.3125 3.625 C-0.3275 3.955 -2.9675 4.285 -5.6875 4.625 C-5.6875 3.635 -5.6875 2.645 -5.6875 1.625 C-2.6875 -0.375 -2.6875 -0.375 0 0 Z " fill="#FF6F75" transform="translate(1270.6875,1217.375)"/>
<path d="M0 0 C0.763125 0.20625 1.52625 0.4125 2.3125 0.625 C1.9825 1.615 1.6525 2.605 1.3125 3.625 C0.36375 3.58375 -0.585 3.5425 -1.5625 3.5 C-4.78994856 3.27526182 -4.78994856 3.27526182 -6.6875 5.625 C-6.375 3.75 -6.375 3.75 -5.6875 1.625 C-2.6875 -0.375 -2.6875 -0.375 0 0 Z " fill="#FF6C72" transform="translate(1021.6875,1217.375)"/>
<path d="M0 0 C2.64 0 5.28 0 8 0 C6.79618552 2.49361571 5.54571278 4.68143083 4 7 C3.67 5.35 3.34 3.7 3 2 C2.01 2 1.02 2 0 2 C0 1.34 0 0.68 0 0 Z " fill="#FF7A80" transform="translate(837,1217)"/>
<path d="M0 0 C-2 2 -2 2 -5.5 3.375 C-9.04249205 4.646238 -9.04249205 4.646238 -10.4375 7.1875 C-10.623125 7.785625 -10.80875 8.38375 -11 9 C-11.35430394 5.81126451 -11.25953249 4.38410809 -9.4375 1.6875 C-6.185351 -0.56398777 -3.86806995 -0.29754384 0 0 Z " fill="#FF797F" transform="translate(1287,1217)"/>
<path d="M0 0 C2.64 0 5.28 0 8 0 C6.84826645 2.46800047 5.95216435 4.04783565 4 6 C3.67 4.68 3.34 3.36 3 2 C2.01 2 1.02 2 0 2 C0 1.34 0 0.68 0 0 Z " fill="#FF797E" transform="translate(711,1217)"/>
<path d="M0 0 C1.32 0.66 2.64 1.32 4 2 C4 3.65 4 5.3 4 7 C2.68 7 1.36 7 0 7 C-0.38133299 5.0085944 -0.71325582 3.00720923 -1 1 C-0.67 0.67 -0.34 0.34 0 0 Z " fill="#FF6269" transform="translate(651,1218)"/>
<path d="M0 0 C0 0.66 0 1.32 0 2 C-4 4 -8 6 -12 8 C-10.61482883 4.5659298 -9.34555636 3.29977978 -6 1.75 C-5.29875 1.41484375 -4.5975 1.0796875 -3.875 0.734375 C-2 0 -2 0 0 0 Z " fill="#FF7379" transform="translate(605,1225)"/>
<path d="M0 0 C2.97 0.33 5.94 0.66 9 1 C9 2.65 9 4.3 9 6 C8.34 6 7.68 6 7 6 C6.34 5.01 5.68 4.02 5 3 C2.44816596 1.79549696 2.44816596 1.79549696 0 1 C0 0.67 0 0.34 0 0 Z " fill="#FF7D82" transform="translate(1079,1217)"/>
<path d="M0 0 C0 0.99 0 1.98 0 3 C-2.9375 2.625 -2.9375 2.625 -6 2 C-6.33 1.34 -6.66 0.68 -7 0 C-4.3333581 -1.33332095 -2.83319697 -0.67102033 0 0 Z " fill="#FF757B" transform="translate(1297,1218)"/>
<path d="M0 0 C1.98 0.495 1.98 0.495 4 1 C3.67 2.32 3.34 3.64 3 5 C1.68 4.34 0.36 3.68 -1 3 C-0.67 2.01 -0.34 1.02 0 0 Z " fill="#FF6D73" transform="translate(1157,1207)"/>
<path d="M0 0 C3.63 0 7.26 0 11 0 C11 0.33 11 0.66 11 1 C9.741875 1.103125 8.48375 1.20625 7.1875 1.3125 C4.39500343 1.64858808 3.25566879 1.80025876 1 3.5625 C0.67 4.036875 0.34 4.51125 0 5 C0 3.35 0 1.7 0 0 Z " fill="#FF5F66" transform="translate(1361,1218)"/>
<path d="M0 0 C1.98 0.495 1.98 0.495 4 1 C4 1.99 4 2.98 4 4 C2.35 4 0.7 4 -1 4 C-0.67 2.68 -0.34 1.36 0 0 Z " fill="#FF6A70" transform="translate(1350,1207)"/>
</svg>
